<?xml version="1.0" encoding="iso-8859-1"?>
<!-- Generator: Adobe Illustrator 25.0.1, SVG Export Plug-In . SVG Version: 6.00 Build 0)  -->
<svg version="1.1" id="Layer_1" xmlns="http://www.w3.org/2000/svg" xmlns:xlink="http://www.w3.org/1999/xlink" x="0px" y="0px"
	 viewBox="0 0 280 125" style="enable-background:new 0 0 280 125;" xml:space="preserve">
<g>
	<circle style="fill:none;stroke:#D68D5D;stroke-miterlimit:10;" cx="34.201" cy="37.672" r="15.656"/>
	<circle style="fill:none;stroke:#231F20;stroke-miterlimit:10;" cx="34.201" cy="22.855" r="15.656"/>
	<circle style="fill:none;stroke:#231F20;stroke-miterlimit:10;" cx="34.201" cy="77.826" r="15.656"/>
	<line style="fill:none;stroke:#D68D5D;stroke-miterlimit:10;" x1="34.201" y1="26.968" x2="34.201" y2="73.713"/>
	<g>
		<g>
			<path style="fill:#D68D5D;" d="M18.558,104.675h7.511l0.021,1.407c0.021,1.862-0.538,3.621-1.138,4.779
				c-0.29,0.559-0.642,1.159-1.056,1.697h-1.593c1.779-2.38,2.172-4.49,2.172-6.684h-5.917V104.675z M20.295,114.669h1.428v3.683
				h9.58v1.241H20.295V114.669z M29.544,103.517h1.366v5.09h2.234v1.221H30.91v4.511h-1.366V103.517z"/>
			<path style="fill:#D68D5D;" d="M35.09,104.841h7.676v1.117c0,2.027-0.6,3.827-1.138,4.924c-0.249,0.518-0.642,1.221-0.973,1.718
				h-1.552c1.655-2.38,2.152-4.47,2.152-6.56H35.09V104.841z M37.884,114.442h11.132v1.262c0,1.304-0.083,2.711-0.724,4.076h-1.428
				c0.517-1.159,0.683-2.214,0.704-2.959c0-0.187,0.021-0.538,0.021-1.076h-9.704V114.442z M44.277,109.041h3.124v-2.297h-3.124
				v-1.117h3.124v-2.069h1.614v9.207h-1.614v-2.606h-3.124V109.041z"/>
		</g>
	</g>
	<circle style="fill:none;stroke:#231F20;stroke-miterlimit:10;" cx="138.3" cy="22.855" r="15.656"/>
	<circle style="fill:none;stroke:#2483C5;stroke-miterlimit:10;" cx="138.3" cy="30.675" r="15.656"/>
	<ellipse style="fill:none;stroke:#231F20;stroke-miterlimit:10;" cx="138.3" cy="89.416" rx="15.656" ry="2.065"/>
	<ellipse style="fill:none;stroke:#2483C5;stroke-miterlimit:10;" cx="138.3" cy="65.678" rx="15.656" ry="11.472"/>
	<g>
		<g>
			<path style="fill:#2483C5;" d="M122.304,105.151h3.58v-1.53h1.573v1.53h3.58v0.952h-1.945c0.476,0.228,1.117,0.973,1.117,2.214
				v1.8c0,1.677-1.324,2.463-2.503,2.463h-2.069c-1.18,0-2.504-0.786-2.504-2.463v-1.8c0-1.241,0.642-1.986,1.117-2.214h-1.945
				V105.151z M124.394,109.785c0,1.159,0.517,1.718,1.862,1.718h0.848c1.324,0,1.842-0.559,1.842-1.718v-0.972
				c0-1.407-0.662-2.008-1.842-2.008h-0.869c-1.179,0-1.841,0.601-1.841,2.008V109.785z M125.863,116.697
				c0-1.158,0.91-1.986,2.317-1.986h6.725c1.138,0,2.069,0.745,2.069,1.862v1.593c0,0.849-0.745,1.614-1.676,1.614h-7.739
				c-0.993,0-1.696-0.725-1.696-1.779V116.697z M127.291,117.566c0,0.91,0.455,1.2,1.324,1.2h5.834c0.807,0,1.221-0.29,1.221-1.097
				v-0.828c0-0.62-0.394-1.014-1.242-1.014h-5.814c-1.18,0-1.324,0.745-1.324,1.263V117.566z M132.608,108.979h2.586v-2.069h-2.586
				v-1.282h2.586v-2.007h1.614v9.394h-1.614v-2.731h-2.586V108.979z"/>
			<path style="fill:#2483C5;" d="M140.845,104.592h7.573v1.263h-5.897v3.683h5.172v1.263h-5.172v3.89h6.104v1.282h-7.78V104.592z
				 M150.218,103.723h1.303v5.587h2.877v-5.587h1.158v15.87h-1.158v-8.979h-2.877v8.979h-1.303V103.723z"/>
		</g>
	</g>
	<circle style="fill:none;stroke:#231F20;stroke-miterlimit:10;" cx="244.07" cy="77.826" r="15.656"/>
	
		<ellipse transform="matrix(0.342 -0.9397 0.9397 0.342 123.9449 255.0125)" style="fill:none;stroke:#F1655D;stroke-miterlimit:10;" cx="244.07" cy="39" rx="15.656" ry="4.357"/>
	
		<ellipse transform="matrix(0.866 -0.5 0.5 0.866 -1.8061 131.2807)" style="fill:none;stroke:#F1655D;stroke-miterlimit:10;" cx="244.07" cy="69.011" rx="15.656" ry="11.213"/>
	<g>
		<g>
			<path style="fill:#F1655D;" d="M229.817,104.489h1.47v2.959h4.799v-2.959h1.47v7.884h-7.738V104.489z M236.085,111.235v-2.648
				h-4.799v2.648H236.085z M231.431,116.366c0-1.18,0.951-1.8,2.109-1.8h7.305c1.158,0,2.049,0.538,2.049,1.655v1.862
				c0,0.993-0.684,1.696-1.821,1.696h-7.8c-1.242,0-1.842-0.766-1.842-1.821V116.366z M232.878,117.525
				c0,1.117,0.539,1.241,1.408,1.241h6.041c0.828,0,1.262-0.331,1.262-1.159v-0.559c0-0.724-0.104-1.345-1.282-1.345h-6.146
				c-1.283,0-1.283,0.828-1.283,1.304V117.525z M241.197,103.578h1.283v4.242h2.441v1.345h-2.441v3.827h-1.283V103.578z"/>
			<path style="fill:#F1655D;" d="M246.516,106.103v-0.952h3.579v-1.53h1.572v1.53h3.58v0.952h-1.945
				c0.477,0.228,1.117,0.973,1.117,2.214v2.007c0,1.676-1.324,2.463-2.503,2.463h-2.069c-1.18,0-2.504-0.787-2.504-2.463v-2.007
				c0-1.241,0.643-1.986,1.117-2.214H246.516z M247.902,116.428c0-1.159,0.911-1.78,2.318-1.78h7.097
				c1.138,0,2.069,0.745,2.069,1.862v1.677c0,0.848-0.745,1.613-1.676,1.613h-8.111c-0.993,0-1.697-0.662-1.697-1.717V116.428z
				 M248.606,109.993c0,1.159,0.517,1.718,1.862,1.718h0.848c1.324,0,1.842-0.559,1.842-1.718v-1.179
				c0-1.407-0.662-2.008-1.842-2.008h-0.869c-1.179,0-1.841,0.601-1.841,2.008V109.993z M249.372,117.649
				c0,0.91,0.455,1.138,1.324,1.138h6.165c0.808,0,1.222-0.394,1.222-1.2v-0.559c0-0.621-0.394-1.221-1.241-1.221h-6.146
				c-1.282,0-1.324,0.683-1.324,1.2V117.649z M257.73,103.558h1.305v2.11h2.42v1.18h-2.42v2.048h2.42v1.304h-2.42v3.29h-1.305
				V103.558z"/>
		</g>
	</g>
	<ellipse style="fill:none;stroke:#231F20;stroke-miterlimit:10;" cx="244.07" cy="22.855" rx="2.065" ry="15.656"/>
</g>
</svg>
