<?xml version="1.0" encoding="iso-8859-1"?>
<!-- Generator: Adobe Illustrator 25.0.1, SVG Export Plug-In . SVG Version: 6.00 Build 0)  -->
<svg version="1.1" id="Layer_1" xmlns="http://www.w3.org/2000/svg" xmlns:xlink="http://www.w3.org/1999/xlink" x="0px" y="0px"
	 viewBox="0 0 500 65" style="enable-background:new 0 0 500 65;" xml:space="preserve">
<g>
	<g>
		<path style="fill:#191B1C;" d="M14.601,10.155c0,4.167-1.368,6.455-4.841,6.455C6.328,16.61,5,14.281,5,10.155V7.867
			c0-4.126,1.389-6.435,4.76-6.435c3.412,0,4.841,2.309,4.841,6.435V10.155z M13.723,7.846c0-3.616-1.063-5.597-3.963-5.597
			c-2.819,0-3.881,2.002-3.881,5.597v2.329c0,3.636,1.062,5.618,3.881,5.618c2.901,0,3.963-1.961,3.963-5.618V7.846z"/>
		<path style="fill:#191B1C;" d="M17.766,3.72c0.633-1.103,2.022-2.288,4.168-2.288c2.553,0,4.249,1.471,4.249,3.677v0.204
			c0,1.164-0.572,2.656-2.676,3.35c2.063,0.347,3.248,1.675,3.248,3.412v0.306c0,2.043-1.226,4.229-4.841,4.229
			c-1.716,0-3.33-0.531-4.719-1.635l0.511-0.756c1.41,1.144,2.901,1.553,4.208,1.553c3.003,0,3.943-1.961,3.943-3.371v-0.265
			c0-2.574-2.431-3.024-3.78-3.024h-1.634V8.296h1.593c1.328,0,3.249-0.817,3.249-3.044V5.088c0-1.654-1.226-2.819-3.33-2.819
			c-1.226,0-2.513,0.429-3.473,1.941L17.766,3.72z"/>
		<path style="fill:#191B1C;" d="M34.495,16.385V2.882l-4.127,2.492L29.96,4.659l4.903-3.003h0.531v14.729H34.495z"/>
		<path style="fill:#191B1C;" d="M43.522,9.235c0-3.269-0.838-6.333-2.84-9.029h0.858c2.022,2.41,2.982,5.679,2.982,9.131v0.817
			c0,3.452-0.96,6.761-2.982,9.172h-0.858c2.104-2.881,2.84-5.965,2.84-9.07V9.235z"/>
		<path style="fill:#191B1C;" d="M52.876,3.72c0.633-1.103,2.022-2.288,4.168-2.288c2.553,0,4.249,1.471,4.249,3.677v0.204
			c0,1.164-0.572,2.656-2.676,3.35c2.063,0.347,3.248,1.675,3.248,3.412v0.306c0,2.043-1.226,4.229-4.841,4.229
			c-1.716,0-3.33-0.531-4.719-1.635l0.511-0.756c1.41,1.144,2.901,1.553,4.208,1.553c3.003,0,3.943-1.961,3.943-3.371v-0.265
			c0-2.574-2.431-3.024-3.78-3.024h-1.634V8.296h1.594c1.327,0,3.248-0.817,3.248-3.044V5.088c0-1.654-1.226-2.819-3.33-2.819
			c-1.226,0-2.513,0.429-3.473,1.941L52.876,3.72z"/>
		<path style="fill:#191B1C;" d="M64.335,12.381c0-1.614,1.042-3.023,2.941-3.513c-1.409-0.613-2.472-1.716-2.472-3.473V5.027
			c0-2.104,1.798-3.596,4.208-3.596c2.41,0,4.208,1.491,4.208,3.596v0.367c0,1.757-1.083,2.901-2.513,3.473
			c1.961,0.511,2.983,1.9,2.983,3.513v0.348c0,2.349-1.961,3.881-4.678,3.881c-2.717,0-4.678-1.532-4.678-3.881V12.381z
			 M65.193,12.749c0,1.634,1.369,3.044,3.82,3.044c2.492,0,3.82-1.41,3.82-3.044v-0.266c0-1.961-1.553-3.248-3.82-3.248
			c-2.206,0-3.82,1.226-3.82,3.248V12.749z M65.621,5.415c0,1.736,1.267,3.064,3.412,3.064c2.124,0,3.371-1.328,3.371-3.064V5.15
			c0-1.634-1.247-2.901-3.391-2.901c-2.227,0-3.391,1.267-3.391,2.901V5.415z"/>
		<path style="fill:#191B1C;" d="M76.385,12.381c0-1.614,1.042-3.023,2.941-3.513c-1.409-0.613-2.472-1.716-2.472-3.473V5.027
			c0-2.104,1.798-3.596,4.208-3.596c2.41,0,4.208,1.491,4.208,3.596v0.367c0,1.757-1.083,2.901-2.513,3.473
			c1.961,0.511,2.983,1.9,2.983,3.513v0.348c0,2.349-1.961,3.881-4.678,3.881c-2.717,0-4.678-1.532-4.678-3.881V12.381z
			 M77.244,12.749c0,1.634,1.369,3.044,3.82,3.044c2.492,0,3.82-1.41,3.82-3.044v-0.266c0-1.961-1.553-3.248-3.82-3.248
			c-2.206,0-3.82,1.226-3.82,3.248V12.749z M77.672,5.415c0,1.736,1.267,3.064,3.412,3.064c2.124,0,3.371-1.328,3.371-3.064V5.15
			c0-1.634-1.247-2.901-3.391-2.901c-2.227,0-3.391,1.267-3.391,2.901V5.415z"/>
		<path style="fill:#191B1C;" d="M100.141,8.357c1.328-1.552,1.43-2.206,1.43-3.166V5.027c0-1.716-1.124-2.778-3.228-2.778
			c-1.532,0-2.737,0.695-3.698,2.41L93.91,4.231c0.756-1.41,2.084-2.799,4.392-2.799c2.472,0,4.147,1.348,4.147,3.555v0.204
			c0,1.348-0.429,2.206-1.675,3.698l-5.618,6.639H103v0.858h-9.07v-0.756L100.141,8.357z"/>
		<path style="fill:#191B1C;" d="M114.316,11.952c0-2.553-1.348-3.677-3.677-3.677c-1.491,0-2.431,0.633-3.146,1.348h-1.021
			l0.47-7.967h7.354v0.837h-6.537l-0.348,6.231c0.695-0.695,1.941-1.287,3.33-1.287c2.615,0,4.474,1.512,4.474,4.453v0.388
			c0,1.982-1.226,4.331-4.841,4.331c-1.716,0-3.33-0.531-4.719-1.635l0.511-0.756c1.41,1.144,2.901,1.553,4.208,1.553
			c3.003,0,3.943-2.063,3.943-3.473V11.952z"/>
		<path style="fill:#191B1C;" d="M126.326,3.148c-0.96-0.592-1.92-0.899-3.187-0.899c-3.309,0-4.331,2.941-4.555,7.273
			c0.633-1.532,2.308-2.431,4.085-2.431c2.737,0,4.555,1.696,4.555,4.474v0.449c0,2.982-2.104,4.596-4.658,4.596
			c-2.513,0-4.841-1.736-4.841-6.088v-0.367c0-6.19,1.941-8.723,5.352-8.723c1.532,0,2.819,0.49,3.636,1.001L126.326,3.148z
			 M118.747,11.605c0,2.513,1.675,4.188,3.82,4.188c2.104,0,3.759-1.307,3.759-3.8v-0.266c0-2.451-1.307-3.861-3.718-3.861
			c-2.308,0-3.861,1.635-3.861,3.616V11.605z"/>
		<path style="fill:#191B1C;" d="M138.418,11.952c0-2.553-1.348-3.677-3.677-3.677c-1.491,0-2.431,0.633-3.146,1.348h-1.021
			l0.47-7.967h7.354v0.837h-6.537l-0.348,6.231c0.695-0.695,1.941-1.287,3.33-1.287c2.615,0,4.474,1.512,4.474,4.453v0.388
			c0,1.982-1.226,4.331-4.841,4.331c-1.716,0-3.33-0.531-4.719-1.635l0.511-0.756c1.41,1.144,2.901,1.553,4.208,1.553
			c3.003,0,3.943-2.063,3.943-3.473V11.952z"/>
	</g>
	<g>
		<path style="fill:#191B1C;" d="M188.338,2.576h-7.947v10.153h4.27c1.798,0,3.738-0.143,5.474-0.49l0.123,0.817
			c-1.695,0.327-3.984,0.491-5.904,0.491h-4.841V1.738h8.825V2.576z M192.485,18.551V0.043h0.879v18.508H192.485z"/>
		<path style="fill:#191B1C;" d="M202.287,8.479c-0.122,0.633-1.103,1.696-1.716,2.37c-0.592,0.633-1.961,2.063-3.146,3.085
			l-0.592-0.633c1.369-1.205,2.553-2.349,3.554-3.493c1.307-1.511,1.43-2.084,1.43-3.759V2.596h-4.515V1.8h9.908v0.796h-4.515v3.453
			c0,1.654,0.224,2.206,1.348,3.412c0.98,1.062,2.247,2.288,3.554,3.493l-0.592,0.593c-1.123-1.042-2.329-2.227-3.248-3.167
			c-0.511-0.531-1.307-1.307-1.451-1.9H202.287z M214.299,8.153h-3.309v10.398h-0.879V0.043h0.879v7.293h3.309V8.153z"/>
		<path style="fill:#191B1C;" d="M225.205,4.843v1.348c0,2.145-2.063,3.922-4.474,3.922c-2.411,0-4.474-1.777-4.474-3.922V4.843
			c0-2.145,2.063-3.922,4.474-3.922C223.142,0.921,225.205,2.698,225.205,4.843z M224.327,6.028V5.007
			c0-1.839-1.594-3.248-3.595-3.248c-2.002,0-3.596,1.409-3.596,3.248v1.021c0,1.838,1.594,3.248,3.596,3.248
			C222.733,9.276,224.327,7.867,224.327,6.028z M220.363,17.509h10.725v0.817h-11.604V12.34h0.879V17.509z M229.74,13.321V0.043
			h0.878v13.279H229.74z"/>
		<path style="fill:#191B1C;" d="M244.874,16.385V2.882l-4.127,2.492l-0.408-0.715l4.903-3.003h0.532v14.729H244.874z"/>
		<path style="fill:#191B1C;" d="M251.164,9.766c1.675,0,3.104,0,4.331-0.02V5.293h0.858v4.433c2.757-0.041,4.596-0.163,6.802-0.408
			l0.082,0.797c-3.289,0.347-5.454,0.449-12.073,0.449V9.766z M259.969,7.438c0.306-1.41,0.49-2.84,0.49-4.494V1.82h-8.069V1.044
			h8.927v1.675c0,2.104-0.225,3.473-0.512,4.821L259.969,7.438z M255.29,17.489h10.929v0.817h-11.808v-5.434h0.879V17.489z
			 M264.85,13.77V0.043h0.859v6.026h2.941v0.817h-2.941v6.884H264.85z"/>
	</g>
	<g>
		<path style="fill:#191B1C;" d="M180.637,32.01v-6.986h-1.9v-0.797h10.091v0.797h-2.247v6.945c0.96-0.04,1.941-0.122,3.044-0.265
			l0.082,0.776c-2.125,0.286-4.331,0.327-6.721,0.327h-4.392V32.01H180.637z M185.703,31.989v-6.966h-4.188v6.986h1.879
			C184.191,32.01,184.947,32.01,185.703,31.989z M182.536,38.69v-0.736c0-1.818,2.063-3.289,5.557-3.289
			c3.493,0,5.556,1.471,5.556,3.289v0.736c0,1.818-2.063,3.289-5.556,3.289C184.6,41.979,182.536,40.509,182.536,38.69z
			 M183.415,37.955v0.736c0,1.368,1.757,2.492,4.678,2.492c2.921,0,4.678-1.124,4.678-2.492v-0.736c0-1.368-1.757-2.492-4.678-2.492
			C185.172,35.462,183.415,36.586,183.415,37.955z M192.669,34.053v-3.759h-3.78v-0.817h3.78v-2.39h-3.78V26.27h3.78v-3.248h0.858
			v11.031H192.669z"/>
		<path style="fill:#191B1C;" d="M213.788,33.583v0.776h-17.037v-0.776h8.069v-2.881h0.879v2.881H213.788z M201.981,30.028
			c-0.919,0.368-1.757,0.654-3.371,1.206l-0.286-0.674c1.41-0.47,2.411-0.817,3.35-1.206c2.125-0.899,3.146-1.267,3.146-2.962
			v-0.899h-5.883v-0.735h5.883v-2.022h0.899v2.022h5.883v0.735h-5.883v0.899c0,1.695,1.022,2.063,3.146,2.962
			c0.94,0.388,1.941,0.735,3.35,1.206l-0.286,0.674c-1.614-0.552-2.452-0.838-3.371-1.206c-1.655-0.654-2.962-1.287-3.289-2.022
			C204.943,28.741,203.635,29.375,201.981,30.028z M200.183,40.509h11.48v0.776h-12.339v-5.189h0.858V40.509z"/>
		<path style="fill:#191B1C;" d="M223.162,25.595h-5.965v9.99h0.654c2.615,0,4.494-0.082,6.394-0.429l0.102,0.817
			c-1.798,0.306-3.82,0.429-5.842,0.429h-2.186V24.779h6.844V25.595z M230.864,41.53h-0.879V30.723h-3.207v9.887H225.9v-17.2h0.878
			v6.496h3.207v-6.885h0.879V41.53z"/>
		<path style="fill:#191B1C;" d="M242.872,34.032v3.963h8.09v0.777h-17.037v-0.777h8.069v-3.963h-5.434v-5.168h10.888v-3.616
			h-10.929v-0.776h11.767v5.148h-10.888v3.637h11.296v0.776H242.872z"/>
		<path style="fill:#191B1C;" d="M263.46,39.365V25.861l-4.127,2.492l-0.409-0.715l4.904-3.003h0.531v14.729H263.46z"/>
		<path style="fill:#191B1C;" d="M279.719,33.134c0,4.168-1.369,6.455-4.842,6.455c-3.432,0-4.76-2.329-4.76-6.455v-2.288
			c0-4.126,1.389-6.435,4.76-6.435c3.412,0,4.842,2.309,4.842,6.435V33.134z M278.841,30.825c0-3.616-1.062-5.597-3.963-5.597
			c-2.819,0-3.881,2.002-3.881,5.597v2.329c0,3.637,1.062,5.618,3.881,5.618c2.901,0,3.963-1.962,3.963-5.618V30.825z"/>
		<path style="fill:#191B1C;" d="M283.088,37.873c0.96,0.592,1.92,0.9,3.186,0.9c3.31,0,4.434-2.39,4.555-7.212
			c-0.633,1.532-2.308,2.431-4.085,2.431c-2.737,0-4.555-1.695-4.555-4.474v-0.511c0-2.982,2.103-4.596,4.657-4.596
			c2.595,0,4.842,1.695,4.842,6.047v0.511c0,6.639-2.022,8.621-5.352,8.621c-1.532,0-2.819-0.491-3.636-1.001L283.088,37.873z
			 M290.667,29.415c0-2.553-1.594-4.187-3.821-4.187c-2.104,0-3.759,1.307-3.759,3.8v0.327c0,2.452,1.307,3.861,3.718,3.861
			c2.309,0,3.861-1.635,3.861-3.616V29.415z"/>
	</g>
	<g>
		<path style="fill:#191B1C;" d="M189.094,49.002h-10.806v-0.776h4.841v-2.513h0.879v2.513h5.087V49.002z M179.431,53.701v-0.797
			c0-1.654,1.941-2.778,4.147-2.778c2.206,0,4.147,1.103,4.147,2.778v0.797c0,1.674-1.941,2.778-4.147,2.778
			C181.372,56.48,179.431,55.376,179.431,53.701z M186.887,53.68v-0.756c0-1.226-1.552-2.022-3.309-2.022
			c-1.757,0-3.309,0.797-3.309,2.022v0.756c0,1.226,1.532,2.022,3.309,2.022C185.356,55.703,186.887,54.906,186.887,53.68z
			 M193.445,57.501v6.966h-11.052v-6.966h0.879v2.512h9.295v-2.512H193.445z M192.567,63.67v-2.86h-9.295v2.86H192.567z
			 M192.587,56.213v-1.512h-3.555v-0.817h3.555v-2.41h-3.555v-0.817h3.555v-4.658h0.858v10.214H192.587z"/>
		<path style="fill:#191B1C;" d="M202.389,51.862c-0.143,0.368-0.715,1.062-1.777,2.022c-0.756,0.695-1.635,1.45-3.003,2.533
			l-0.551-0.653c1.348-1.022,2.452-1.962,3.289-2.758c1.594-1.553,1.532-1.879,1.532-3.513v-2.656h0.899v2.676
			c0,1.574,0.143,2.022,1.552,3.33c0.858,0.797,2.063,1.737,2.942,2.35l-0.511,0.633c-0.939-0.674-1.941-1.491-2.696-2.145
			c-1.063-0.919-1.532-1.471-1.655-1.818H202.389z M201,61.566v-0.715c0-1.838,2.022-3.391,5.557-3.391
			c3.534,0,5.556,1.553,5.556,3.391v0.715c0,1.839-2.022,3.392-5.556,3.392C203.023,64.957,201,63.405,201,61.566z M201.879,60.851
			v0.715c0,1.369,1.757,2.595,4.678,2.595c2.921,0,4.678-1.226,4.678-2.595v-0.715c0-1.368-1.757-2.594-4.678-2.594
			C203.635,58.257,201.879,59.482,201.879,60.851z M206.516,50.35h4.596v-4.351h0.878v10.888h-0.878v-5.719h-4.596V50.35z"/>
		<path style="fill:#191B1C;" d="M232.375,53.844v0.776h-17.037v-0.776h7.089v-3.78h0.879v3.78H232.375z M217.605,46.674h12.114
			v1.083c0,2.022-0.123,3.166-0.409,4.76l-0.878-0.103c0.286-1.553,0.429-2.635,0.429-4.494v-0.471h-11.256V46.674z M217.953,64.548
			V60.34h10.929v-2.717h-11.031v-0.756h11.889v4.208h-10.929v2.717h11.481v0.756H217.953z"/>
		<path style="fill:#191B1C;" d="M250.962,60.953v0.797h-17.037v-0.797H250.962z M236.478,55.846v-8.07h11.91v0.797h-11.031v6.476
			h11.215v0.797H236.478z"/>
		<path style="fill:#191B1C;" d="M269.548,60.973v0.777h-17.037v-0.777H269.548z M254.289,56.5v-0.756h3.145v-7.17h-2.942v-0.756
			h13.054v0.756h-2.942v7.17h3.146V56.5H254.289z M258.292,55.744h5.455v-7.17h-5.455V55.744z"/>
		<path style="fill:#191B1C;" d="M272.998,53.742v5.271h3.555c1.409,0,4.127-0.144,5.945-0.45l0.102,0.797
			c-1.961,0.347-4.964,0.47-6.292,0.47h-4.168v-6.884h7.15v-4.637h-7.15v-0.797h8.008v6.231H272.998z M288.667,53.906h-3.31v10.602
			h-0.878V45.999h0.878v7.089h3.31V53.906z"/>
		<path style="fill:#191B1C;" d="M295.221,54.436c-0.123,0.633-1.103,1.695-1.716,2.369c-0.592,0.633-1.962,2.063-3.146,3.085
			l-0.592-0.633c1.369-1.205,2.554-2.349,3.555-3.492c1.307-1.512,1.43-2.084,1.43-3.76v-3.452h-4.516v-0.797h9.908v0.797h-4.515
			v3.452c0,1.655,0.225,2.207,1.348,3.412c0.981,1.063,2.248,2.289,3.555,3.493l-0.592,0.592c-1.124-1.041-2.33-2.227-3.248-3.166
			c-0.512-0.531-1.307-1.307-1.451-1.9H295.221z M307.232,54.109h-3.309v10.398h-0.879V45.999h0.879v7.293h3.309V54.109z"/>
		<path style="fill:#191B1C;" d="M320.547,54.314c1.328-1.553,1.43-2.206,1.43-3.166v-0.164c0-1.715-1.123-2.778-3.227-2.778
			c-1.533,0-2.737,0.695-3.698,2.411l-0.735-0.43c0.756-1.409,2.083-2.798,4.392-2.798c2.471,0,4.147,1.348,4.147,3.554v0.204
			c0,1.348-0.429,2.206-1.675,3.698l-5.618,6.639h7.844v0.859h-9.07v-0.756L320.547,54.314z"/>
		<path style="fill:#191B1C;" d="M334.866,47.613v0.838h-7.517v6.313h7.089v0.817h-7.089v6.762h-0.899v-14.73H334.866z"/>
	</g>
	<g>
		<path style="fill:#191B1C;" d="M361.952,2.576h-7.947v10.153h4.269c1.798,0,3.739-0.143,5.475-0.49l0.123,0.817
			c-1.695,0.327-3.983,0.491-5.904,0.491h-4.842V1.738h8.826V2.576z M366.099,18.551V0.043h0.879v18.508H366.099z"/>
		<path style="fill:#191B1C;" d="M375.902,8.479c-0.123,0.633-1.103,1.696-1.716,2.37c-0.592,0.633-1.962,2.063-3.146,3.085
			l-0.592-0.633c1.369-1.205,2.554-2.349,3.555-3.493c1.307-1.511,1.43-2.084,1.43-3.759V2.596h-4.516V1.8h9.908v0.796h-4.515v3.453
			c0,1.654,0.225,2.206,1.348,3.412c0.981,1.062,2.248,2.288,3.555,3.493l-0.592,0.593c-1.124-1.042-2.33-2.227-3.248-3.167
			c-0.512-0.531-1.307-1.307-1.451-1.9H375.902z M387.913,8.153h-3.309v10.398h-0.879V0.043h0.879v7.293h3.309V8.153z"/>
		<path style="fill:#191B1C;" d="M398.818,4.843v1.348c0,2.145-2.063,3.922-4.474,3.922c-2.41,0-4.474-1.777-4.474-3.922V4.843
			c0-2.145,2.063-3.922,4.474-3.922C396.755,0.921,398.818,2.698,398.818,4.843z M397.941,6.028V5.007
			c0-1.839-1.594-3.248-3.596-3.248c-2.001,0-3.595,1.409-3.595,3.248v1.021c0,1.838,1.594,3.248,3.595,3.248
			C396.347,9.276,397.941,7.867,397.941,6.028z M393.978,17.509h10.725v0.817h-11.603V12.34h0.879V17.509z M403.354,13.321V0.043
			h0.879v13.279H403.354z"/>
		<path style="fill:#191B1C;" d="M419.815,8.357c1.328-1.552,1.43-2.206,1.43-3.166V5.027c0-1.716-1.123-2.778-3.227-2.778
			c-1.533,0-2.737,0.695-3.698,2.41l-0.735-0.429c0.756-1.41,2.083-2.799,4.392-2.799c2.471,0,4.147,1.348,4.147,3.555v0.204
			c0,1.348-0.429,2.206-1.675,3.698l-5.618,6.639h7.844v0.858h-9.07v-0.756L419.815,8.357z"/>
		<path style="fill:#191B1C;" d="M424.777,9.766c1.675,0,3.105,0,4.331-0.02V5.293h0.858v4.433c2.758-0.041,4.596-0.163,6.803-0.408
			l0.082,0.797c-3.289,0.347-5.455,0.449-12.074,0.449V9.766z M433.582,7.438c0.306-1.41,0.491-2.84,0.491-4.494V1.82h-8.07V1.044
			h8.927v1.675c0,2.104-0.224,3.473-0.511,4.821L433.582,7.438z M428.904,17.489h10.929v0.817h-11.808v-5.434h0.879V17.489z
			 M438.464,13.77V0.043h0.858v6.026h2.942v0.817h-2.942v6.884H438.464z"/>
	</g>
	<g>
		<path style="fill:#191B1C;" d="M354.251,32.01v-6.986h-1.9v-0.797h10.091v0.797h-2.247v6.945c0.96-0.04,1.941-0.122,3.044-0.265
			l0.082,0.776c-2.124,0.286-4.331,0.327-6.721,0.327h-4.392V32.01H354.251z M359.317,31.989v-6.966h-4.188v6.986h1.879
			C357.805,32.01,358.561,32.01,359.317,31.989z M356.15,38.69v-0.736c0-1.818,2.063-3.289,5.557-3.289s5.557,1.471,5.557,3.289
			v0.736c0,1.818-2.063,3.289-5.557,3.289S356.15,40.509,356.15,38.69z M357.029,37.955v0.736c0,1.368,1.757,2.492,4.678,2.492
			c2.921,0,4.678-1.124,4.678-2.492v-0.736c0-1.368-1.757-2.492-4.678-2.492C358.786,35.462,357.029,36.586,357.029,37.955z
			 M366.283,34.053v-3.759h-3.779v-0.817h3.779v-2.39h-3.779V26.27h3.779v-3.248h0.859v11.031H366.283z"/>
		<path style="fill:#191B1C;" d="M387.403,33.583v0.776h-17.037v-0.776h8.07v-2.881h0.879v2.881H387.403z M375.595,30.028
			c-0.918,0.368-1.756,0.654-3.371,1.206l-0.285-0.674c1.409-0.47,2.41-0.817,3.35-1.206c2.125-0.899,3.146-1.267,3.146-2.962
			v-0.899h-5.884v-0.735h5.884v-2.022h0.899v2.022h5.884v0.735h-5.884v0.899c0,1.695,1.021,2.063,3.146,2.962
			c0.939,0.388,1.941,0.735,3.35,1.206l-0.286,0.674c-1.614-0.552-2.451-0.838-3.371-1.206c-1.654-0.654-2.962-1.287-3.289-2.022
			C378.558,28.741,377.25,29.375,375.595,30.028z M373.798,40.509h11.48v0.776h-12.339v-5.189h0.859V40.509z"/>
		<path style="fill:#191B1C;" d="M396.776,25.595h-5.966v9.99h0.654c2.615,0,4.495-0.082,6.394-0.429l0.102,0.817
			c-1.798,0.306-3.821,0.429-5.843,0.429h-2.185V24.779h6.843V25.595z M404.478,41.53h-0.879V30.723h-3.207v9.887h-0.879v-17.2
			h0.879v6.496h3.207v-6.885h0.879V41.53z"/>
		<path style="fill:#191B1C;" d="M416.487,34.032v3.963h8.089v0.777h-17.037v-0.777h8.07v-3.963h-5.434v-5.168h10.888v-3.616
			h-10.929v-0.776H421.9v5.148h-10.888v3.637h11.297v0.776H416.487z"/>
		<path style="fill:#191B1C;" d="M437.074,39.365V25.861l-4.127,2.492l-0.409-0.715l4.904-3.003h0.531v14.729H437.074z"/>
		<path style="fill:#191B1C;" d="M444.447,26.699c0.633-1.103,2.022-2.288,4.168-2.288c2.553,0,4.249,1.471,4.249,3.677v0.204
			c0,1.164-0.572,2.656-2.677,3.35c2.063,0.347,3.248,1.675,3.248,3.411v0.307c0,2.042-1.226,4.228-4.842,4.228
			c-1.715,0-3.33-0.532-4.719-1.635l0.512-0.756c1.409,1.144,2.9,1.553,4.207,1.553c3.004,0,3.943-1.961,3.943-3.371v-0.265
			c0-2.574-2.431-3.024-3.78-3.024h-1.634v-0.817h1.594c1.328,0,3.248-0.817,3.248-3.044v-0.164c0-1.654-1.226-2.819-3.33-2.819
			c-1.226,0-2.512,0.429-3.472,1.941L444.447,26.699z"/>
		<path style="fill:#191B1C;" d="M465.384,33.134c0,4.168-1.369,6.455-4.842,6.455c-3.432,0-4.76-2.329-4.76-6.455v-2.288
			c0-4.126,1.389-6.435,4.76-6.435c3.412,0,4.842,2.309,4.842,6.435V33.134z M464.506,30.825c0-3.616-1.062-5.597-3.963-5.597
			c-2.819,0-3.881,2.002-3.881,5.597v2.329c0,3.637,1.062,5.618,3.881,5.618c2.901,0,3.963-1.962,3.963-5.618V30.825z"/>
	</g>
	<g>
		<path style="fill:#191B1C;" d="M357.54,52.291c-0.143,0.368-0.715,1.062-1.777,2.022c-0.756,0.695-1.635,1.451-3.003,2.533
			l-0.551-0.653c1.348-1.021,2.451-1.962,3.289-2.758c1.593-1.552,1.532-1.879,1.532-3.513v-3.044h0.899v3.065
			c0,1.573,0.144,2.022,1.553,3.33c0.858,0.796,2.063,1.736,2.942,2.349l-0.511,0.633c-0.94-0.674-1.941-1.491-2.697-2.145
			c-1.062-0.918-1.533-1.47-1.655-1.818H357.54z M356.764,63.465h10.643v0.818h-11.521v-6.149h0.879V63.465z M366.037,59.237V45.999
			h0.879v13.238H366.037z"/>
		<path style="fill:#191B1C;" d="M374.962,54.58c-0.102,0.592-0.899,1.552-1.552,2.308c-0.572,0.654-1.41,1.594-2.677,2.778
			l-0.571-0.592c1.226-1.144,1.879-1.859,2.88-3.003c1.267-1.43,1.45-2.369,1.45-3.963v-4.658h0.9v4.658
			c0,1.553,0.122,2.206,1.348,3.718c0.899,1.103,1.777,2.022,2.818,3.044l-0.592,0.572c-1-1.021-1.797-1.839-2.553-2.737
			c-0.715-0.838-1.307-1.532-1.43-2.124H374.962z M377.863,52.414h3.8v-6.026h0.879v17.201h-0.879V53.251h-3.8V52.414z
			 M386.116,64.508h-0.879V45.999h0.879V64.508z"/>
		<path style="fill:#191B1C;" d="M390.055,59.319c6.087-3.391,7.149-4.76,7.149-7.844v-2.86h-7.089v-0.817h7.946v3.738
			c0,3.719-1.654,5.23-7.537,8.54L390.055,59.319z M403.19,64.508V45.999h0.879v18.508H403.19z"/>
		<path style="fill:#191B1C;" d="M429.681,60.973v0.777h-17.037v-0.777H429.681z M414.422,56.5v-0.756h3.145v-7.17h-2.942v-0.756
			h13.054v0.756h-2.942v7.17h3.146V56.5H414.422z M418.425,55.744h5.455v-7.17h-5.455V55.744z"/>
		<path style="fill:#191B1C;" d="M433.131,53.742v5.271h3.555c1.409,0,4.127-0.144,5.945-0.45l0.102,0.797
			c-1.961,0.347-4.964,0.47-6.292,0.47h-4.168v-6.884h7.15v-4.637h-7.15v-0.797h8.008v6.231H433.131z M448.8,53.906h-3.309v10.602
			h-0.879V45.999h0.879v7.089h3.309V53.906z"/>
		<path style="fill:#191B1C;" d="M455.355,54.436c-0.123,0.633-1.103,1.695-1.716,2.369c-0.592,0.633-1.962,2.063-3.146,3.085
			l-0.592-0.633c1.369-1.205,2.554-2.349,3.555-3.492c1.307-1.512,1.43-2.084,1.43-3.76v-3.452h-4.516v-0.797h9.908v0.797h-4.515
			v3.452c0,1.655,0.225,2.207,1.348,3.412c0.981,1.063,2.248,2.289,3.555,3.493l-0.592,0.592c-1.124-1.041-2.33-2.227-3.248-3.166
			c-0.512-0.531-1.307-1.307-1.451-1.9H455.355z M467.366,54.109h-3.309v10.398h-0.879V45.999h0.879v7.293h3.309V54.109z"/>
		<path style="fill:#191B1C;" d="M480.681,54.314c1.328-1.553,1.43-2.206,1.43-3.166v-0.164c0-1.715-1.123-2.778-3.227-2.778
			c-1.533,0-2.737,0.695-3.698,2.411l-0.735-0.43c0.756-1.409,2.083-2.798,4.392-2.798c2.471,0,4.147,1.348,4.147,3.554v0.204
			c0,1.348-0.429,2.206-1.675,3.698l-5.618,6.639h7.844v0.859h-9.07v-0.756L480.681,54.314z"/>
		<path style="fill:#191B1C;" d="M495,47.613v0.838h-7.517v6.313h7.089v0.817h-7.089v6.762h-0.899v-14.73H495z"/>
	</g>
</g>
</svg>
