<?xml version="1.0" encoding="iso-8859-1"?>
<!-- Generator: Adobe Illustrator 25.0.1, SVG Export Plug-In . SVG Version: 6.00 Build 0)  -->
<svg version="1.1" id="Layer_1" xmlns="http://www.w3.org/2000/svg" xmlns:xlink="http://www.w3.org/1999/xlink" x="0px" y="0px"
	 viewBox="0 0 500 54" style="enable-background:new 0 0 500 54;" xml:space="preserve">
<g>
	<path d="M2.5,2.747h10.75v1.585H4.258v11.443h3.344c2.527,0,4.929-0.149,7.703-0.619l0.223,1.56
		c-2.626,0.471-5.598,0.644-8.372,0.644H2.5V2.747z M19.541,23.355h-1.758V0.716h1.758V23.355z"/>
	<path d="M38.025,4.357h-5.127V7.9c0,1.882,0.149,2.675,1.461,4.186c0.966,1.115,2.428,2.576,4.26,4.211l-1.139,1.164
		c-1.709-1.585-2.898-2.799-3.888-3.864c-0.718-0.768-1.412-1.535-1.536-1.857H32.03c-0.124,0.446-1.09,1.56-1.808,2.328
		c-0.669,0.694-2.329,2.452-3.815,3.74l-1.164-1.164c1.56-1.387,2.972-2.75,4.111-4.038c1.56-1.758,1.783-2.7,1.783-4.582V4.357
		h-5.202V2.822h12.088V4.357z M42.83,9.361h3.765v1.56H42.83v12.434h-1.758V0.716h1.758V9.361z"/>
	<path d="M50.712,8.172V6.685c0-2.452,2.18-4.979,5.573-4.979c3.393,0,5.573,2.527,5.573,4.979v1.486
		c0,2.452-2.18,4.979-5.573,4.979C52.892,13.15,50.712,10.624,50.712,8.172z M52.396,6.834v1.189c0,1.857,1.585,3.567,3.889,3.567
		s3.889-1.709,3.889-3.567V6.834c0-1.857-1.585-3.567-3.889-3.567S52.396,4.977,52.396,6.834z M56.285,21.547h12.657v1.536H54.526
		v-7.406h1.759V21.547z M68.373,16.915h-1.734V0.716h1.734V16.915z"/>
	<path d="M80.911,20.631V4.952l-4.31,2.626L75.809,6.19l5.523-3.418h1.313v17.859H80.911z"/>
	<path d="M105.436,13.299c-3.022,0.372-7.084,0.57-14.589,0.57v-1.535c1.857,0,3.468,0,4.904-0.025V7.255h1.734v5.028
		c3.492-0.074,5.697-0.223,7.802-0.446L105.436,13.299z M103.381,1.905v2.229c0,2.229-0.272,4.459-0.595,5.796l-1.734-0.223
		c0.372-1.709,0.595-3.443,0.595-5.226v-1.04h-9.289V1.905H103.381z M96.52,21.547h12.855v1.536H94.761v-6.713h1.759V21.547z
		 M108.756,7.85h3.393v1.56h-3.393v8.1h-1.734V0.716h1.734V7.85z"/>
	<path d="M118.52,11.342h2.081v2.23h-2.081V11.342z"/>
	<path d="M130.561,11.714V3.243h-2.303V2.277h12.236v0.966h-2.724v8.422c1.164-0.05,2.353-0.149,3.69-0.322l0.099,0.941
		c-2.576,0.347-5.251,0.397-8.149,0.397h-5.325v-0.966H130.561z M136.704,11.689V3.243h-5.078v8.471h2.279
		C134.871,11.714,135.787,11.714,136.704,11.689z M132.865,19.814v-0.892c0-2.204,2.502-3.988,6.737-3.988
		c4.236,0,6.738,1.783,6.738,3.988v0.892c0,2.204-2.502,3.988-6.738,3.988C135.366,23.801,132.865,22.018,132.865,19.814z
		 M133.929,18.922v0.892c0,1.659,2.131,3.022,5.672,3.022c3.542,0,5.672-1.362,5.672-3.022v-0.892c0-1.659-2.13-3.022-5.672-3.022
		C136.06,15.9,133.929,17.262,133.929,18.922z M145.15,14.191V9.633h-4.582V8.642h4.582V5.745h-4.582V4.754h4.582V0.815h1.04v13.376
		H145.15z"/>
	<path d="M172.624,13.621v0.941h-20.657v-0.941h9.784v-3.492h1.065v3.492H172.624z M158.308,9.311
		c-1.115,0.446-2.13,0.793-4.087,1.461l-0.347-0.817c1.709-0.57,2.923-0.991,4.062-1.461c2.576-1.09,3.814-1.536,3.814-3.592v-1.09
		h-7.134V2.921h7.134V0.468h1.09v2.452h7.134v0.892h-7.134v1.09c0,2.056,1.238,2.502,3.814,3.592
		c1.139,0.47,2.353,0.892,4.062,1.461l-0.347,0.817c-1.957-0.669-2.972-1.016-4.087-1.461c-2.006-0.793-3.591-1.56-3.988-2.452
		C161.899,7.751,160.314,8.519,158.308,9.311z M156.128,22.018h13.92v0.941h-14.961v-6.292h1.04V22.018z"/>
	<path d="M185.857,3.936h-7.233v12.112h0.793c3.17,0,5.449-0.099,7.753-0.52l0.124,0.991c-2.18,0.371-4.632,0.52-7.084,0.52h-2.651
		V2.945h8.298V3.936z M195.195,23.256h-1.065V10.153h-3.889v11.988h-1.065V1.286h1.065v7.877h3.889V0.815h1.065V23.256z"/>
	<path d="M211.623,14.166v4.805h9.809v0.941h-20.657v-0.941h9.784v-4.805h-6.589V7.9h13.202V3.515h-13.252V2.574h14.267v6.242
		h-13.202v4.409h13.698v0.941H211.623z"/>
	<path d="M240.313,20.631V4.258l-5.004,3.022l-0.495-0.867l5.944-3.641h0.644v17.859H240.313z"/>
	<path d="M261.891,13.076c0,5.053-1.659,7.827-5.87,7.827c-4.162,0-5.772-2.824-5.772-7.827v-2.774c0-5.003,1.685-7.803,5.772-7.803
		c4.136,0,5.87,2.799,5.87,7.803V13.076z M260.825,10.277c0-4.385-1.288-6.787-4.805-6.787c-3.418,0-4.707,2.427-4.707,6.787v2.824
		c0,4.409,1.289,6.812,4.707,6.812c3.517,0,4.805-2.378,4.805-6.812V10.277z"/>
	<path d="M267.839,18.823c1.164,0.718,2.328,1.09,3.864,1.09c4.012,0,5.375-2.898,5.523-8.744c-0.767,1.857-2.798,2.948-4.954,2.948
		c-3.319,0-5.523-2.056-5.523-5.424V8.073c0-3.616,2.551-5.573,5.647-5.573c3.146,0,5.87,2.056,5.87,7.332v0.619
		c0,8.05-2.452,10.453-6.49,10.453c-1.857,0-3.417-0.595-4.408-1.214L267.839,18.823z M277.029,8.568
		c0-3.096-1.932-5.078-4.632-5.078c-2.551,0-4.558,1.585-4.558,4.607v0.397c0,2.972,1.585,4.681,4.508,4.681
		c2.799,0,4.682-1.981,4.682-4.384V8.568z"/>
	<path d="M303.959,4.456h-13.104V3.515h5.871V0.468h1.065v3.047h6.168V4.456z M292.242,10.153V9.187
		c0-2.006,2.353-3.369,5.029-3.369c2.675,0,5.027,1.337,5.027,3.369v0.966c0,2.031-2.353,3.369-5.027,3.369
		C294.596,13.522,292.242,12.185,292.242,10.153z M301.284,10.129V9.212c0-1.486-1.883-2.452-4.012-2.452
		c-2.131,0-4.013,0.966-4.013,2.452v0.917c0,1.486,1.858,2.452,4.013,2.452C299.426,12.581,301.284,11.615,301.284,10.129z
		 M309.235,14.76v8.447h-13.4V14.76h1.065v3.047h11.27V14.76H309.235z M308.169,22.241v-3.468H296.9v3.468H308.169z M308.194,13.2
		v-1.833h-4.31v-0.991h4.31V7.454h-4.31V6.463h4.31V0.815h1.041V13.2H308.194z"/>
	<path d="M321.946,7.924c-0.173,0.446-0.867,1.288-2.155,2.452c-0.916,0.842-1.98,1.758-3.64,3.071l-0.669-0.793
		c1.634-1.238,2.972-2.378,3.988-3.344c1.932-1.882,1.858-2.279,1.858-4.26v-3.22h1.09v3.245c0,1.907,0.174,2.452,1.883,4.037
		c1.04,0.966,2.501,2.105,3.567,2.849l-0.619,0.768c-1.139-0.817-2.353-1.808-3.27-2.601c-1.288-1.115-1.858-1.783-2.006-2.204
		H321.946z M320.263,19.69v-0.867c0-2.229,2.452-4.111,6.737-4.111c4.285,0,6.737,1.882,6.737,4.111v0.867
		c0,2.229-2.452,4.111-6.737,4.111C322.715,23.801,320.263,21.919,320.263,19.69z M321.327,18.823v0.867
		c0,1.659,2.13,3.146,5.672,3.146c3.542,0,5.672-1.486,5.672-3.146v-0.867c0-1.659-2.131-3.146-5.672-3.146
		C323.457,15.677,321.327,17.163,321.327,18.823z M326.95,6.091h5.573V0.815h1.066v13.202h-1.066V7.082h-5.573V6.091z"/>
	<path d="M360.172,10.327v0.941h-20.658v-0.941h8.595V5.745h1.065v4.582H360.172z M342.264,1.633h14.688v1.313
		c0,2.452-0.148,3.84-0.496,5.772l-1.065-0.124c0.346-1.883,0.52-3.195,0.52-5.449v-0.57h-13.647V1.633z M342.684,23.306v-5.103
		h13.251v-3.294H342.56v-0.917h14.416v5.103h-13.252v3.294h13.921v0.917H342.684z"/>
	<path d="M384.575,18.946v0.966h-20.658v-0.966H384.575z M367.013,12.754V2.97h14.44v0.966h-13.376v7.852h13.598v0.966H367.013z"/>
	<path d="M408.978,18.971v0.941H388.32v-0.941H408.978z M390.475,13.547V12.63h3.814V3.936h-3.567V3.02h15.828v0.917h-3.567v8.694
		h3.814v0.917H390.475z M395.33,12.63h6.614V3.936h-6.614V12.63z"/>
	<path d="M415.027,10.203v6.391h4.31c1.709,0,5.004-0.173,7.208-0.545l0.123,0.966c-2.377,0.421-6.019,0.57-7.629,0.57h-5.053V9.237
		h8.67V3.614h-8.67V2.648h9.71v7.555H415.027z M434.025,10.401h-4.013v12.855h-1.065V0.815h1.065V9.41h4.013V10.401z"/>
	<path d="M443.839,11.045c-0.148,0.768-1.337,2.056-2.081,2.873c-0.718,0.768-2.377,2.502-3.814,3.74l-0.718-0.768
		c1.66-1.461,3.097-2.849,4.31-4.235c1.585-1.833,1.734-2.527,1.734-4.558V3.912h-5.474V2.945h12.013v0.966h-5.474v4.186
		c0,2.006,0.273,2.675,1.635,4.136c1.189,1.288,2.725,2.774,4.31,4.236l-0.718,0.718c-1.362-1.263-2.824-2.7-3.939-3.839
		c-0.619-0.644-1.585-1.585-1.758-2.304H443.839z M458.403,10.649h-4.012v12.608h-1.066V0.815h1.066v8.843h4.012V10.649z"/>
	<path d="M478.275,10.896c1.61-1.882,1.734-2.675,1.734-3.839V6.859c0-2.081-1.362-3.369-3.914-3.369
		c-1.858,0-3.319,0.842-4.483,2.923l-0.892-0.52c0.917-1.709,2.527-3.393,5.325-3.393c2.997,0,5.028,1.635,5.028,4.31v0.248
		c0,1.635-0.52,2.675-2.031,4.484l-6.812,8.05h9.511v1.04h-10.997v-0.917L478.275,10.896z"/>
	<path d="M497.5,2.772v1.016h-9.114v7.654h8.595v0.991h-8.595v8.198h-1.091V2.772H497.5z"/>
	<path d="M2.5,32.478h10.75v1.585H4.258v11.443h3.344c2.527,0,4.929-0.148,7.703-0.619l0.223,1.56
		c-2.626,0.471-5.598,0.644-8.372,0.644H2.5V32.478z M19.541,53.086h-1.758V30.447h1.758V53.086z"/>
	<path d="M38.025,34.088h-5.127v3.542c0,1.882,0.149,2.675,1.461,4.186c0.966,1.115,2.428,2.576,4.26,4.211l-1.139,1.164
		c-1.709-1.585-2.898-2.799-3.888-3.864c-0.718-0.768-1.412-1.535-1.536-1.857H32.03c-0.124,0.446-1.09,1.56-1.808,2.328
		c-0.669,0.694-2.329,2.452-3.815,3.74l-1.164-1.164c1.56-1.387,2.972-2.75,4.111-4.038c1.56-1.758,1.783-2.7,1.783-4.582v-3.666
		h-5.202v-1.535h12.088V34.088z M42.83,39.091h3.765v1.56H42.83v12.434h-1.758V30.447h1.758V39.091z"/>
	<path d="M50.712,37.902v-1.486c0-2.452,2.18-4.979,5.573-4.979c3.393,0,5.573,2.527,5.573,4.979v1.486
		c0,2.452-2.18,4.979-5.573,4.979C52.892,42.881,50.712,40.355,50.712,37.902z M52.396,36.565v1.189
		c0,1.857,1.585,3.567,3.889,3.567s3.889-1.709,3.889-3.567v-1.189c0-1.857-1.585-3.567-3.889-3.567S52.396,34.707,52.396,36.565z
		 M56.285,51.278h12.657v1.536H54.526v-7.406h1.759V51.278z M68.373,46.646h-1.734V30.447h1.734V46.646z"/>
	<path d="M81.778,41.073c1.957-2.303,2.279-3.22,2.279-4.161v-0.198c0-1.783-1.238-2.898-3.393-2.898c-1.56,0-2.972,0.619-4.136,2.7
		l-1.387-0.867c0.842-1.535,2.502-3.418,5.474-3.418c3.17,0,5.202,1.784,5.202,4.459v0.248c0,1.932-1.437,3.542-2.972,5.325
		l-5.548,6.514h9.165v1.585H75.115v-1.486L81.778,41.073z"/>
	<path d="M105.436,43.029c-3.022,0.372-7.084,0.57-14.589,0.57v-1.535c1.857,0,3.468,0,4.904-0.025v-5.053h1.734v5.028
		c3.492-0.074,5.697-0.223,7.802-0.446L105.436,43.029z M103.381,31.636v2.229c0,2.229-0.272,4.459-0.595,5.796l-1.734-0.223
		c0.372-1.709,0.595-3.443,0.595-5.226v-1.04h-9.289v-1.535H103.381z M96.52,51.278h12.855v1.536H94.761v-6.713h1.759V51.278z
		 M108.756,37.58h3.393v1.56h-3.393v8.1h-1.734V30.447h1.734V37.58z"/>
	<path d="M118.52,41.073h2.081v2.23h-2.081V41.073z"/>
	<path d="M130.561,41.444v-8.471h-2.303v-0.966h12.236v0.966h-2.724v8.421c1.164-0.049,2.353-0.148,3.69-0.322l0.099,0.941
		c-2.576,0.347-5.251,0.397-8.149,0.397h-5.325v-0.966H130.561z M136.704,41.419v-8.446h-5.078v8.471h2.279
		C134.871,41.444,135.787,41.444,136.704,41.419z M132.865,49.544v-0.892c0-2.204,2.502-3.988,6.737-3.988
		c4.236,0,6.738,1.783,6.738,3.988v0.892c0,2.204-2.502,3.988-6.738,3.988C135.366,53.532,132.865,51.748,132.865,49.544z
		 M133.929,48.652v0.892c0,1.659,2.131,3.022,5.672,3.022c3.542,0,5.672-1.362,5.672-3.022v-0.892c0-1.659-2.13-3.022-5.672-3.022
		C136.06,45.63,133.929,46.993,133.929,48.652z M145.15,43.921v-4.558h-4.582v-0.991h4.582v-2.898h-4.582v-0.991h4.582v-3.939h1.04
		v13.376H145.15z"/>
	<path d="M172.624,43.351v0.941h-20.657v-0.941h9.784v-3.492h1.065v3.492H172.624z M158.308,39.042
		c-1.115,0.446-2.13,0.793-4.087,1.461l-0.347-0.817c1.709-0.57,2.923-0.991,4.062-1.462c2.576-1.09,3.814-1.535,3.814-3.591v-1.09
		h-7.134v-0.892h7.134v-2.452h1.09v2.452h7.134v0.892h-7.134v1.09c0,2.056,1.238,2.502,3.814,3.591
		c1.139,0.471,2.353,0.892,4.062,1.462l-0.347,0.817c-1.957-0.669-2.972-1.016-4.087-1.461c-2.006-0.793-3.591-1.56-3.988-2.452
		C161.899,37.481,160.314,38.249,158.308,39.042z M156.128,51.748h13.92v0.941h-14.961v-6.292h1.04V51.748z"/>
	<path d="M185.857,33.667h-7.233v12.112h0.793c3.17,0,5.449-0.099,7.753-0.52l0.124,0.991c-2.18,0.371-4.632,0.52-7.084,0.52h-2.651
		V32.676h8.298V33.667z M195.195,52.987h-1.065V39.884h-3.889v11.988h-1.065V31.016h1.065v7.877h3.889v-8.348h1.065V52.987z"/>
	<path d="M211.623,43.896v4.805h9.809v0.941h-20.657v-0.941h9.784v-4.805h-6.589V37.63h13.202v-4.385h-13.252v-0.941h14.267v6.242
		h-13.202v4.409h13.698v0.941H211.623z"/>
	<path d="M240.313,50.361V33.989l-5.004,3.022l-0.495-0.867l5.944-3.641h0.644v17.859H240.313z"/>
	<path d="M251.116,35.004c0.767-1.337,2.452-2.774,5.053-2.774c3.095,0,5.151,1.784,5.151,4.459v0.248
		c0,1.412-0.693,3.22-3.244,4.062c2.502,0.421,3.939,2.031,3.939,4.136v0.372c0,2.477-1.487,5.127-5.871,5.127
		c-2.08,0-4.037-0.644-5.722-1.982l0.62-0.917c1.709,1.387,3.518,1.883,5.102,1.883c3.642,0,4.781-2.378,4.781-4.087v-0.322
		c0-3.121-2.948-3.666-4.582-3.666h-1.982v-0.991h1.932c1.61,0,3.939-0.991,3.939-3.69v-0.199c0-2.006-1.487-3.418-4.038-3.418
		c-1.486,0-3.047,0.52-4.21,2.353L251.116,35.004z"/>
	<path d="M278.367,42.807c0,5.053-1.66,7.827-5.871,7.827c-4.161,0-5.771-2.824-5.771-7.827v-2.774c0-5.003,1.685-7.803,5.771-7.803
		c4.137,0,5.871,2.799,5.871,7.803V42.807z M277.301,40.008c0-4.385-1.288-6.787-4.805-6.787c-3.417,0-4.706,2.427-4.706,6.787
		v2.824c0,4.409,1.289,6.812,4.706,6.812c3.518,0,4.805-2.378,4.805-6.812V40.008z"/>
	<path d="M297.692,38.175c-0.173,0.446-0.866,1.288-2.155,2.452c-0.917,0.842-1.981,1.759-3.641,3.071l-0.669-0.793
		c1.635-1.238,2.972-2.378,3.988-3.344c1.932-1.883,1.857-2.279,1.857-4.261v-3.69h1.091v3.715c0,1.907,0.173,2.452,1.882,4.037
		c1.04,0.966,2.502,2.106,3.568,2.849l-0.62,0.768c-1.139-0.817-2.353-1.808-3.269-2.601c-1.289-1.115-1.859-1.783-2.006-2.204
		H297.692z M296.75,51.723h12.905v0.991h-13.97v-7.456h1.065V51.723z M307.996,46.596V30.546h1.066v16.051H307.996z"/>
	<path d="M320.683,40.949c-0.123,0.718-1.089,1.883-1.882,2.799c-0.694,0.793-1.709,1.932-3.245,3.369l-0.693-0.718
		c1.486-1.387,2.279-2.254,3.492-3.641c1.535-1.734,1.758-2.873,1.758-4.805v-5.647h1.091v5.647c0,1.882,0.148,2.675,1.634,4.508
		c1.091,1.337,2.155,2.452,3.418,3.69l-0.718,0.694c-1.214-1.238-2.18-2.229-3.097-3.319c-0.867-1.016-1.585-1.858-1.734-2.576
		H320.683z M324.2,38.324h4.607v-7.307h1.065v20.856h-1.065V39.339H324.2V38.324z M334.207,52.987h-1.066V30.546h1.066V52.987z"/>
	<path d="M340.851,46.696c7.381-4.112,8.67-5.771,8.67-9.511v-3.468h-8.595v-0.991h9.635v4.533c0,4.508-2.006,6.341-9.14,10.354
		L340.851,46.696z M356.778,52.987V30.546h1.065v22.441H356.778z"/>
	<path d="M384.575,48.702v0.941h-20.658v-0.941H384.575z M366.072,43.277v-0.917h3.814v-8.694h-3.567V32.75h15.828v0.917h-3.567
		v8.694h3.814v0.917H366.072z M370.927,42.361h6.614v-8.694h-6.614V42.361z"/>
	<path d="M390.624,39.933v6.391h4.31c1.709,0,5.004-0.174,7.208-0.545l0.123,0.966c-2.377,0.421-6.019,0.57-7.629,0.57h-5.053
		v-8.347h8.67v-5.622h-8.67v-0.966h9.71v7.555H390.624z M409.622,40.132h-4.012v12.855h-1.066V30.546h1.066v8.595h4.012V40.132z"/>
	<path d="M419.435,40.776c-0.148,0.768-1.337,2.056-2.081,2.873c-0.718,0.768-2.377,2.501-3.814,3.74l-0.718-0.768
		c1.66-1.461,3.097-2.848,4.31-4.235c1.585-1.833,1.734-2.527,1.734-4.558v-4.186h-5.474v-0.966h12.013v0.966h-5.474v4.186
		c0,2.006,0.273,2.675,1.635,4.136c1.189,1.288,2.725,2.774,4.31,4.236l-0.718,0.718c-1.362-1.263-2.824-2.7-3.939-3.839
		c-0.619-0.644-1.585-1.585-1.758-2.304H419.435z M434,40.379h-4.012v12.608h-1.066V30.546h1.066v8.843H434V40.379z"/>
	<path d="M453.872,40.627c1.61-1.882,1.734-2.675,1.734-3.839V36.59c0-2.081-1.362-3.369-3.914-3.369
		c-1.858,0-3.319,0.842-4.483,2.923l-0.892-0.52c0.917-1.709,2.527-3.393,5.325-3.393c2.997,0,5.028,1.635,5.028,4.31v0.248
		c0,1.635-0.52,2.675-2.031,4.484l-6.812,8.05h9.511v1.04h-10.997v-0.917L453.872,40.627z"/>
	<path d="M473.097,32.503v1.016h-9.114v7.654h8.595v0.991h-8.595v8.198h-1.091V32.503H473.097z"/>
</g>
</svg>
