<?xml version="1.0" encoding="iso-8859-1"?>
<!-- Generator: Adobe Illustrator 25.0.1, SVG Export Plug-In . SVG Version: 6.00 Build 0)  -->
<svg version="1.1" id="Layer_1" xmlns="http://www.w3.org/2000/svg" xmlns:xlink="http://www.w3.org/1999/xlink" x="0px" y="0px"
	 viewBox="0 0 960 560" style="enable-background:new 0 0 960 560;" xml:space="preserve">
<g>
	<g>
		<path d="M615.599,337.753l-1.815-1.049l1.082-1.873c0.874-1.52,4.276-7.724,15.516-28.651
			c9.018-16.789,18.574-34.797,28.407-53.522l0.785-1.493h12.649l0.774,1.511c9.648,18.661,19.242,36.951,28.511,54.36
			c11.545,21.702,14.298,26.846,14.574,27.34l1.036,1.897l-1.839,1.006l-1.032-1.887c-0.406-0.721-5.315-9.933-14.591-27.369
			c-9.274-17.416-18.869-35.714-28.523-54.385l-0.193-0.374h-10.101l-0.195,0.371c-9.835,18.732-19.395,36.745-28.415,53.541
			c-11.25,20.948-14.664,27.172-15.547,28.705L615.599,337.753z"/>
		<path d="M628.641,343.746l-1.901-0.885l0.715-1.535c0.395-0.846,2.709-5.325,4.579-8.934c1.229-2.376,6.595-12.685,11.996-23.063
			c5.927-11.393,11.901-22.877,12.499-24.039c2.13-4.159,4.07-7.91,5.816-11.254l2.609-4.996l13.866,26.989
			c6.582,12.828,16.53,32.214,18.424,35.985c2.564,5.082,4.334,8.634,4.618,9.266l0.703,1.591l-1.917,0.848l-0.7-1.585
			c-0.201-0.448-1.524-3.124-4.578-9.178c-1.89-3.763-11.836-23.144-18.416-35.969L664.94,273.6l-0.733,1.406
			c-1.747,3.341-3.682,7.087-5.811,11.242c-0.6,1.164-6.574,12.653-12.506,24.05c-5.401,10.376-10.763,20.683-11.991,23.058
			c-3.554,6.852-4.371,8.49-4.543,8.858L628.641,343.746z"/>
		<path d="M751.104,340.816l-2.097-0.039l0.035-1.912c0.051-2.504,0.121-7.353,0.223-14.558c0.094-7.158,0.139-15.951,0.139-26.881
			V285.83c0-5.68-0.121-16.042-0.356-30.797l-0.053-2.972h2.783c0.481,0,2.88-0.04,7.201-0.126c3.59-0.071,6.92-0.126,10.093-0.126
			c5.818,0,10.294,0.198,14.507,0.64c4.17,0.443,8.28,1.397,12.217,2.836c5.21,1.911,9.431,4.792,12.549,8.567
			c3.244,3.94,4.889,8.626,4.889,13.93c0,6.781-2.446,12.507-7.267,17.017c-2.923,2.717-5.782,5.009-8.497,6.812l-0.848,0.561
			l0.723,0.713c5.657,5.598,11.85,11.42,18.406,17.305l14.547,13.148l-1.434,1.528l-3.281-3.018l-11.234-10.097
			c-6.58-5.908-12.798-11.753-18.48-17.374l-2.558-2.526l2.998-1.988c2.622-1.74,5.389-3.96,8.225-6.598
			c4.379-4.096,6.601-9.307,6.601-15.484c0-4.805-1.483-9.043-4.41-12.596c-2.877-3.483-6.797-6.151-11.651-7.932
			c-3.775-1.379-7.717-2.295-11.715-2.72c-4.137-0.434-8.545-0.628-14.287-0.628c-3.16,0-6.474,0.055-10.052,0.126
			c-4.346,0.086-6.757,0.126-7.242,0.126h-0.649l0.016,0.839c0.236,14.769,0.357,25.141,0.357,30.833v11.596
			c0,10.939-0.045,19.741-0.139,26.91c-0.102,7.213-0.172,12.066-0.223,14.57L751.104,340.816z"/>
		<path d="M816.835,343.436l-0.946-0.856c-1.192-1.087-5.552-5.284-11.385-10.957c-6.204-6.016-15.731-15.381-29.98-29.47
			l-1.051-1.033l0.535-4.113l1.886-0.423c1.614-0.362,3.908-1.222,6.814-2.553c2.851-1.312,5.261-2.733,7.162-4.224
			c1.532-1.215,2.89-2.746,4.035-4.549c1.012-1.589,1.524-3.866,1.524-6.767c0-2.497-0.731-4.573-2.234-6.348
			c-1.6-1.905-3.895-3.34-6.824-4.269c-2.634-0.858-5.407-1.378-8.252-1.548c-3.066-0.185-5.896-0.279-8.414-0.279l-3.322,0.019
			l-0.008,0.806c-0.076,6.455-0.121,12.235-0.139,17.346c-0.027,6.068-0.037,10.35-0.037,12.856c0,5.725,0.041,13.5,0.111,23.322
			c0.072,9.806,0.131,15.963,0.182,18.467l0.035,1.914l-2.097,0.039l-0.035-1.912c-0.051-2.507-0.111-8.672-0.182-18.494
			c-0.07-9.828-0.111-17.606-0.111-23.336c0-2.508,0.01-6.791,0.037-12.864c0.018-5.115,0.063-10.902,0.139-17.362l0.033-2.867
			l5.388-0.032c2.566,0,5.438,0.095,8.547,0.284c3.021,0.18,5.97,0.734,8.768,1.644c3.306,1.05,5.927,2.704,7.785,4.913
			c1.835,2.167,2.728,4.686,2.728,7.701c0,3.307-0.623,5.962-1.851,7.891c-1.27,2.001-2.785,3.707-4.506,5.071
			c-2.034,1.595-4.583,3.103-7.586,4.483c-3.041,1.393-5.472,2.299-7.23,2.693l-0.453,0.101l-0.211,1.624l0.307,0.304
			c14.247,14.086,23.768,23.445,29.967,29.459c5.819,5.659,10.163,9.839,11.336,10.909l0.944,0.854L816.835,343.436z"/>
		<path d="M896.333,341.531l-0.035-1.912c-0.045-2.509-0.107-7.555-0.182-15.139c-0.07-7.589-0.101-15.061-0.101-22.417
			c0-7.651,0.021-13.696,0.076-18.133l0.205-18.696h2.888c9.819,0.004,17.28,0.025,22.394,0.06c5.71,0.041,8.952,0.06,9.732,0.06
			h1.686v2.097h-1.686c-0.78,0-4.031-0.019-9.747-0.06c-5.112-0.035-12.569-0.055-22.379-0.059h-0.815l-0.18,16.623
			c-0.055,4.433-0.076,10.468-0.076,18.108c0,7.35,0.031,14.816,0.1,22.398c0.076,7.575,0.137,12.615,0.182,15.121l0.035,1.911
			L896.333,341.531z"/>
		<path d="M882.98,341.551l-2.097-0.08l0.074-1.948c0.094-2.451,0.176-7.452,0.252-15.291c0.065-7.726,0.102-15.288,0.102-22.678
			v-17.35c0-3.665-0.051-9.025-0.158-16.075l-0.012-0.811l-8.608-0.017c-5.294,0-9.88,0.02-13.755,0.06
			c-6.427,0.06-9.96,0.09-10.589,0.09h-1.682v-2.097h1.682c0.629,0,4.153-0.03,10.568-0.09c3.879-0.041,8.473-0.06,13.777-0.06
			l10.671,0.021l0.045,2.872c0.106,7.064,0.158,12.434,0.158,16.107v17.35c0,7.397-0.037,14.964-0.102,22.698
			c-0.076,7.861-0.158,12.881-0.252,15.351L882.98,341.551z"/>
		<path d="M889.204,255.175c-8.08,0-15.688-0.02-22.836-0.06c-7.139-0.041-13.194-0.06-18.179-0.06h-1.682v-2.097h1.682
			c4.989,0,11.047,0.02,18.191,0.06c7.144,0.04,14.748,0.06,22.824,0.06c11.705,0,21.486-0.02,29.351-0.06l14.437-0.06l0.008,2.097
			l-14.435,0.06C910.699,255.155,900.913,255.175,889.204,255.175z"/>
		<path d="M388.48,341.401l-2.093-0.096l0.09-1.958c0.049-1.019,0.125-4.714,0.225-10.986c0.102-6.511,0.156-15.41,0.156-26.448
			c0-4.513-0.025-10.511-0.076-17.986c-0.049-7.476-0.149-15.394-0.301-23.76l-0.039-2.039l15.244-5.926l1.35,1.414
			c0.909,0.948,8.649,9.007,23.229,24.17c12.143,12.631,23.877,24.695,34.877,35.857l1.432,1.452l-0.017-2.037
			c-0.045-6.032-0.131-13.77-0.282-23.219c-0.201-15.051-0.301-26.368-0.301-33.638v-1.872h2.097v1.872
			c0,7.26,0.1,18.568,0.301,33.607c0.152,9.453,0.238,17.198,0.283,23.233l0.053,7.206l-5.061-5.133
			c-11.004-11.168-22.744-23.239-34.893-35.875c-14.58-15.165-22.324-23.224-23.235-24.174l-0.381-0.4l-12.569,4.886l0.01,0.576
			c0.152,8.376,0.252,16.302,0.301,23.784c0.051,7.482,0.076,13.484,0.076,18.001c0,11.049-0.053,19.959-0.156,26.481
			c-0.102,6.385-0.176,10.001-0.229,11.053L388.48,341.401z"/>
		<path d="M465.766,343.329l-1.366-1.517c-15.072-16.711-29.445-32.094-42.719-45.719l-18.134-18.609l0.008,2.038
			c0.035,9.234,0.117,19.866,0.248,31.913c0.19,17.552,0.291,25.658,0.342,27.981l0.045,1.913l-2.097,0.049l-0.045-1.914
			c-0.051-2.333-0.152-10.446-0.342-28.007c-0.131-12.053-0.213-22.689-0.248-31.927l-0.029-7.224l21.755,22.322
			c13.292,13.645,27.684,29.048,42.774,45.78l0.385,0.428l11.135-4.467v-0.553c0-0.458-0.051-4.162-0.156-11.113
			c-0.1-6.96-0.152-16.405-0.152-28.07c0-3.692,0.035-9.719,0.111-18.094c0.076-8.372,0.166-15.812,0.262-22.322l0.031-1.905
			l2.097,0.035l-0.031,1.903c-0.096,6.504-0.186,13.94-0.262,22.308c-0.076,8.366-0.111,14.388-0.111,18.075
			c0,11.656,0.051,21.089,0.152,28.039c0.104,6.97,0.156,10.684,0.156,11.144v1.972L465.766,343.329z"/>
		<g id="XMLID_450_">
			<path d="M551.365,329.889c-4.899,0-9.474-0.01-13.718-0.031l-10.038-0.072l-0.137-10.773c-0.045-3.839-0.072-8.816-0.076-14.91
				v-2.912l7.633-0.035c3.363-0.02,6.248-0.031,8.672-0.031c6.57,0,13.826,0.031,21.755,0.096l7.914,0.061
				c2.83,0.021,4.366,0.034,4.602,0.034h1.872v2.097h-1.872c-0.238,0-1.778-0.012-4.618-0.034l-7.914-0.061
				c-7.924-0.065-15.172-0.096-21.738-0.096c-2.419,0-5.3,0.01-8.661,0.031l-5.546,0.024v0.825
				c0.004,6.085,0.031,11.053,0.076,14.885l0.113,8.716l7.977,0.057c4.239,0.021,8.811,0.031,13.706,0.031
				c7.521,0,13.845-0.02,18.967-0.06c5.143-0.04,8.02-0.06,8.631-0.06h1.872v2.097h-1.872c-0.61,0-3.48,0.021-8.614,0.06
				C565.223,329.869,558.894,329.889,551.365,329.889z"/>
			<path d="M514.435,342.169h-3.05l0.133-3.047c0.096-2.345,0.186-7.712,0.26-15.516c0.076-7.995,0.117-16.255,0.117-24.788
				c0-2.455-0.006-5.377-0.021-8.683l-0.004-1.056l1.055,0.003c5.372,0.014,20.462,0.06,21.734,0.066
				c3.101,0.019,5.862,0.03,8.286,0.03c8.885,0,16.825-0.035,23.819-0.095c7.019-0.065,10.753-0.095,11.207-0.095h1.872v2.097
				h-1.872c-0.455,0-4.18,0.03-11.188,0.095c-7,0.06-14.945,0.095-23.838,0.095c-2.429,0-5.194-0.01-8.297-0.03
				c-1.194-0.005-14.613-0.046-20.674-0.062c0.012,2.877,0.017,5.443,0.017,7.635c0,8.539-0.041,16.808-0.117,24.808
				c-0.074,7.826-0.164,13.214-0.26,15.585l-0.039,0.861h0.856c3.701-0.01,8.219-0.03,13.552-0.07
				c5.327-0.041,11.205-0.061,17.619-0.061c9.243,0,16.999,0.021,23.262,0.061c6.273,0.04,9.638,0.059,10.097,0.059h1.872v2.097
				h-1.872c-0.459,0-3.828-0.02-10.109-0.06c-6.259-0.041-14.011-0.061-23.25-0.061c-6.41,0-12.28,0.02-17.603,0.061
				C522.664,342.14,518.141,342.159,514.435,342.169z"/>
			<path d="M579.846,267.836c0,0-61.512-0.156-67.109-0.156v-2.097c5.597,0,67.114,0.156,67.114,0.156L579.846,267.836z"/>
			<rect x="512.536" y="253.348" width="67.312" height="2.097"/>
		</g>
		<g>
			<path d="M305.309,344.556l-0.131-2.093c4.487-0.279,11.006-1.218,15.459-2.684c5.833-1.917,11.318-4.946,16.301-9.002
				c4.643-3.77,8.422-8.538,11.232-14.175c2.871-5.753,4.327-12.103,4.327-18.874c0-6.465-1.303-12.617-3.871-18.285
				c-2.593-5.71-6.451-10.735-11.467-14.936c-4.119-3.467-9.509-6.413-15.594-8.519c-4.616-1.6-11.729-2.643-16.387-2.935
				l0.131-2.093c4.795,0.301,12.141,1.382,16.942,3.045c6.324,2.19,11.946,5.265,16.258,8.896
				c5.255,4.401,9.302,9.676,12.026,15.675c2.693,5.943,4.059,12.386,4.059,19.151c0,7.1-1.53,13.764-4.549,19.81
				c-2.945,5.906-6.91,10.908-11.785,14.866c-5.181,4.218-10.891,7.37-16.968,9.368
				C316.348,343.399,309.592,344.289,305.309,344.556z"/>
			<path d="M305.367,332.396l-0.246-2.083c1.354-0.159,5.99-0.755,8.831-1.73c3.836-1.314,7.308-3.159,10.044-5.334
				c3.463-2.723,6.343-6.25,8.565-10.487c2.187-4.17,3.295-8.894,3.295-14.039c0-4.921-1.045-9.885-3.107-14.756
				c-1.968-4.663-5.071-8.674-9.223-11.924c-2.667-2.115-5.954-3.893-9.513-5.147c-2.783-0.981-7.504-1.553-8.885-1.706l0.229-2.085
				c1.438,0.159,6.357,0.758,9.351,1.813c3.777,1.33,7.273,3.224,10.116,5.478c4.43,3.467,7.748,7.76,9.857,12.754
				c2.171,5.13,3.271,10.371,3.271,15.573c0,5.488-1.19,10.538-3.537,15.013c-2.357,4.501-5.427,8.255-9.12,11.158
				c-2.916,2.319-6.605,4.283-10.664,5.674C311.677,331.582,307.167,332.184,305.367,332.396z"/>
			<path d="M298.891,332.406c-4.346-0.256-6.206-0.91-9.02-1.9c-3.723-1.309-6.961-3.072-9.896-5.392
				c-3.998-3.113-7.174-7.053-9.44-11.704c-2.216-4.546-3.34-9.823-3.34-15.683c0.004-5.138,1.12-10.169,3.318-14.953
				c2.183-4.742,5.288-8.786,9.225-12.019c3.318-2.716,6.546-4.559,10.154-5.803c2.792-0.955,4.633-1.587,9.001-1.837l0.119,2.093
				c-4.08,0.235-5.72,0.797-8.438,1.728c-3.367,1.16-6.388,2.889-9.507,5.441c-3.689,3.03-6.599,6.823-8.649,11.274
				c-2.071,4.508-3.121,9.245-3.125,14.078c0,5.538,1.053,10.506,3.127,14.764c2.124,4.361,5.102,8.053,8.85,10.972
				c2.755,2.178,5.796,3.832,9.298,5.063c2.74,0.965,4.395,1.546,8.446,1.786L298.891,332.406z"/>
			<path d="M298.911,344.563c-6.513-0.26-10.496-1.171-15.174-2.657c-5.649-1.786-10.777-4.52-15.678-8.358
				c-5.194-3.998-9.448-9.121-12.632-15.222c-3.222-6.149-4.856-13.126-4.856-20.734c0-6.81,1.274-13.083,3.785-18.646
				c2.564-5.663,6.382-10.756,11.35-15.142c4.703-4.17,10.259-7.404,16.514-9.61c5.476-1.927,10.621-2.919,16.681-3.214l0.102,2.095
				c-5.927,0.288-10.738,1.215-16.088,3.097c-5.997,2.116-11.32,5.212-15.819,9.203c-4.747,4.19-8.389,9.045-10.83,14.435
				c-2.388,5.289-3.598,11.273-3.598,17.783c0,7.265,1.555,13.914,4.619,19.762c3.044,5.831,7.101,10.722,12.059,14.537
				c4.706,3.686,9.62,6.306,15.025,8.016c4.619,1.466,8.315,2.308,14.623,2.561L298.911,344.563z"/>
		</g>
	</g>
	<rect id="XMLID_92_" x="200.242" y="261.611" width="1.202" height="74.512"/>
	<g id="XMLID_15_">
		<g id="LORxpm.tif_4_">
			<g id="XMLID_144_">
				<path id="XMLID_304_" d="M86.296,332.511c-0.746-0.288-1.39-0.566-2.052-0.789c-1.075-0.363-2.155-0.722-3.251-1.008
					c-0.219-0.057-0.526,0.227-0.599,0.262c-0.648-0.451-1.222-0.851-1.849-1.286c-0.126,0.368-0.218,0.26-0.326,0.579
					c-1.499-1.223-1.766-1.615-2.403-1.104c-0.763-0.601-1.491-1.207-2.262-1.753c-0.189-0.134-0.542-0.142-0.787-0.079
					c-1.104,0.289-1.099,0.304-1.397-0.903c-0.339,0.111-0.671,0.219-1.102,0.36c0.024-0.969-0.549-1.201-1.331-1.327
					c-0.315-0.051-0.594-0.456-0.843-0.743c-0.506-0.58-0.911-1.187-1.813-1.337c-0.49-0.082-0.939-0.64-1.323-1.061
					c-0.558-0.613-1.001-1.334-1.573-1.931c-0.246-0.257-0.696-0.317-1.133-0.5c-0.064-0.772-0.455-1.305-1.415-1.247
					c-0.134,0.008-0.397-0.189-0.403-0.303c-0.038-0.774-0.633-1.048-1.129-1.472c-0.37-0.317-0.716-0.88-0.731-1.343
					c-0.028-0.873-0.366-1.13-1.206-0.924c-0.041-0.612,0.282-1.368-0.689-1.477c-0.091-0.011-0.143-0.261-0.235-0.384
					c-0.458-0.615-0.302-1.592-1.302-1.937c-0.316-0.109-0.431-0.852-0.599-1.32c-0.378-1.05-1.195-1.837-1.688-2.774
					c-0.337-0.642-1.273-1.212-0.804-2.262c0.12-0.268-0.309-0.768-0.46-1.169c-0.482-1.283-0.917-2.586-1.442-3.851
					c-0.275-0.662-0.796-1.23-1.02-1.903c-0.194-0.583-0.073-1.264-0.183-1.887c-0.31-1.742-0.723-3.466-0.993-5.215
					c-0.2-1.3-0.232-2.628-0.355-3.941c-0.199-2.123-0.449-4.244-0.593-6.372c-0.05-0.765,0.041-1.578,0.26-2.311
					c0.339-1.13,0.58-2.235,0.514-3.43c-0.033-0.597,0.183-1.222,0.36-1.813c0.476-1.603,0.92-3.222,1.507-4.786
					c1.378-3.674,2.683-7.394,4.739-10.762c1.122-1.839,2.464-3.545,3.663-5.341c0.345-0.517,0.391-1.363,0.837-1.654
					c0.724-0.472,0.607-1.463,1.684-1.827c1.154-0.39,1.994-1.665,3.017-2.497c2.248-1.83,4.453-3.725,6.813-5.402
					c1.855-1.32,3.886-2.407,5.897-3.489c1.005-0.539,2.152-0.806,3.21-1.25c1.048-0.442,2.065-0.955,3.099-1.431
					c1.115-0.514,2.155-1.116,3.525-0.878c0.758,0.132,1.608-0.33,2.426-0.464c1.589-0.26,3.192-0.434,4.773-0.73
					c0.782-0.147,1.527-0.484,2.413-0.775c0.7,0.772,2.651,0.782,3.263-0.066c0.566,0.198,1.066,0.476,1.592,0.542
					c3.287,0.416,6.591,0.705,9.862,1.209c1.42,0.219,2.815,0.76,4.152,1.319c2.773,1.159,5.563,2.305,8.224,3.692
					c1.945,1.014,3.804,2.272,5.506,3.66c2.362,1.925,4.696,3.931,6.753,6.17c1.953,2.123,3.62,4.531,5.259,6.919
					c2.498,3.635,4.059,7.745,5.55,11.859c0.807,2.228,1.237,4.557,1.646,6.911c0.558,3.21,0.682,6.413,0.632,9.626
					c-0.041,2.59-0.211,5.213-0.696,7.749c-0.615,3.211-1.373,6.438-2.51,9.493c-1.037,2.79-2.574,5.409-4.053,8.013
					c-1.171,2.063-2.576,3.993-3.895,5.971c-1.119,1.681-2.58,3.041-4.087,4.365c-1.07,0.941-2.019,2.027-3.118,2.93
					c-1.346,1.105-2.754,2.146-4.208,3.106c-1.745,1.154-3.523,2.272-5.362,3.261c-2.517,1.356-5.103,2.548-7.97,3.068
					c-2.57,0.467-5.095,1.174-7.653,1.712c-0.976,0.207-1.988,0.254-2.984,0.347c-1.78,0.165-3.559,0.348-5.344,0.445
					c-0.761,0.041-1.534-0.175-2.302-0.178c-1.628-0.005-3.184-0.457-4.775-0.667c-0.88-0.117-1.766-0.073-2.601-0.462
					C86.537,332.229,86.311,332.498,86.296,332.511z M142.818,274.627c0-0.257,0.042-0.506-0.006-0.735
					c-0.362-1.65-0.701-3.309-1.129-4.943c-1.04-3.988-2.601-7.775-4.869-11.218c-1.385-2.103-3.028-4.035-4.53-6.061
					c-2.019-2.724-4.695-4.737-7.366-6.729c-1.567-1.168-3.242-2.234-4.989-3.104c-2.363-1.178-4.822-2.177-7.281-3.146
					c-1.108-0.437-2.311-0.642-3.479-0.911c-2.001-0.462-3.99-1.022-6.017-1.294c-1.617-0.217-3.282-0.076-4.926-0.085
					c-1.518-0.008-3.055-0.162-4.548,0.033c-2.139,0.281-4.261,0.755-6.361,1.267c-2.032,0.497-4.072,1.023-6.028,1.751
					c-3.902,1.455-7.43,3.632-10.731,6.139c-4.327,3.288-7.934,7.27-10.895,11.834c-2.295,3.536-4.026,7.319-5.434,11.298
					c-1.597,4.514-2.234,9.179-2.591,13.891c-0.353,4.666,0.399,9.263,1.693,13.729c1.108,3.824,2.866,7.401,4.899,10.832
					c0.296,0.5,0.664,0.755,1.285,0.741c2.253-0.049,4.507-0.079,6.761-0.063c4.883,0.036,9.767,0.072,14.647,0.189
					c0.936,0.022,0.892-0.314,0.769-0.98c-0.107-0.578-0.169-1.179-0.143-1.764c0.071-1.625,0.285-3.247,0.285-4.871
					c-0.003-3.099-0.044-6.203-0.213-9.296c-0.083-1.536,0.177-3.128-0.511-4.612c-0.103-0.222-0.008-0.555,0.043-0.826
					c0.098-0.528,0.309-1.047,0.329-1.575c0.043-1.189,0.022-2.384-0.023-3.574c-0.024-0.615-0.213-1.225-0.223-1.839
					c-0.009-0.727-0.578-1.499,0.238-2.18c0.905-0.755,2.011-0.891,2.891-0.085c0.741,0.678,1.334,1.518,2.015,2.265
					c0.963,1.058,1.96,2.082,2.919,3.143c3.482,3.849,6.945,7.715,10.434,11.558c1.934,2.13,3.897,4.234,5.859,6.34
					c0.785,0.844,1.603,1.657,2.56,2.642c0.082-0.465,0.139-0.638,0.139-0.812c0.003-2.401,0.006-4.803-0.008-7.204
					c-0.016-2.653-0.041-5.304-0.079-7.958c-0.046-3.06-0.259-6.126-0.109-9.174c0.087-1.75,0.596-1.957,2.177-1.51
					c0.824,0.234,1.726,0.29,2.59,0.27c2.158-0.047,4.314-0.196,6.472-0.282c6.328-0.254,12.655-0.487,18.981-0.752
					C139.77,274.903,141.221,274.75,142.818,274.627z M60.059,309.573c0.271,0.465,0.352,0.628,0.453,0.776
					c1.955,2.831,4.31,5.301,6.974,7.456c1.94,1.57,3.891,3.178,6.037,4.425c2.329,1.352,4.843,2.431,7.363,3.395
					c2.104,0.806,4.31,1.427,6.522,1.86c3.286,0.645,6.633,0.913,9.987,0.713c2.365-0.14,4.742-0.286,7.078-0.651
					c3.898-0.61,7.656-1.8,11.295-3.317c1.603-0.668,3.146-1.505,4.647-2.385c1.723-1.009,3.51-1.985,5.016-3.271
					c2.514-2.149,4.896-4.469,7.209-6.838c2.511-2.573,4.31-5.694,5.881-8.881c1.288-2.613,2.256-5.409,3.139-8.194
					c1.764-5.569,2.15-11.307,1.667-17.11c-0.026-0.316-0.301-0.76-0.571-0.87c-0.489-0.199-1.061-0.252-1.598-0.259
					c-1.217-0.011-2.436,0.027-3.654,0.074c-4.568,0.178-9.138,0.37-13.707,0.55c-3.722,0.146-7.445,0.285-11.167,0.421
					c-0.411,0.014-0.839-0.076-0.824,0.577c0.039,1.847,0.005,3.697,0.085,5.542c0.177,4.036,0.434,8.066,0.607,12.102
					c0.118,2.757,0.189,5.517,0.186,8.276c0,0.556-0.158,1.316-0.369,1.88c-1.294,3.448-5.686,2.803-6.783,1.45
					c-1.167-1.437-2.39-2.828-3.6-4.228c-0.131-0.152-3.876-4.077-4.579-5.139c-0.057-0.085-0.229-0.156-0.33-0.137
					c-0.643,0.115-0.755-0.299-0.941-0.782c-0.44-1.141-1.333-1.975-2.336-2.562c-0.566-0.331-0.991-0.481-0.966-1.239
					c0.027-0.801-0.914-1.795-1.499-1.578c-0.697,0.257-2.273-2.628-3.069-3.484c-0.163-0.175-0.323-0.389-0.531-0.473
					c-0.344-0.139-1.393-1.187-1.537-1.523c-0.347-0.82-0.734-1.622-1.124-2.421c-0.038-0.077-0.207-0.091-0.491-0.206
					c0,0.435-0.014,0.758,0.002,1.078c0.076,1.501,0.166,3,0.24,4.499c0.123,2.473,0.26,4.945,0.35,7.42
					c0.142,3.957,0.664,7.906,0.096,11.875c-0.205,1.433-0.763,2.067-2.053,1.49c-1.436-0.643-2.892-0.382-4.314-0.484
					c-2.155-0.158-4.338,0.09-6.51,0.12c-0.659,0.009-1.319-0.197-1.978-0.186c-0.801,0.014-1.597,0.216-2.398,0.227
					C65.417,309.594,62.869,309.573,60.059,309.573z"/>
				<path id="XMLID_182_" d="M81.062,332.702c0.238-0.11,0.646-0.333,1.08-0.493c0.719-0.266,1.222,0.063,1.859,0.463
					c1.308,0.825,1.398,1.542,1.319,3.159c-0.147,0.451-0.099,1.063-0.044,1.532c2.096,0,4.07-0.022,6.044,0.006
					c1.983,0.028,3.965,0.145,5.948,0.148c1.957,0.003,3.919-0.025,5.869-0.172c0.696-0.052,1.226,0.197,1.986-0.095
					c0.908,0.236,1.376,0.087,2.254-0.192c0.277-0.088,0.608,0.003,0.911-0.024c0.933-0.084,1.881-0.106,2.79-0.304
					c0.728-0.159,1.264,0.102,1.278,0.847c0.032,1.501-0.153,1.767-1.549,2.223c-0.11,0.036-0.243,0.006-0.364,0
					c-1.364-0.082-2.724-0.205-4.089-0.24c-1.677-0.042-3.358-0.03-5.035-0.011c-2.054,0.022-4.108,0.038-6.159,0.128
					c-1.281,0.057-2.557,0.249-3.837,0.364c-0.132,0.011-0.277-0.087-0.411-0.147c-0.708-0.315-1.403-0.531-1.972,0.206
					c-1.293-0.563-1.293-0.563-1.532,0.134c-0.342-0.104-0.743-0.366-0.979-0.26c-0.301,0.132-0.66,0.565-0.66,0.869
					c-0.005,1.302,0.101,2.606,0.191,3.908c0.065,0.939,0.167,1.876,0.263,2.918c1.305,0,2.722,0.013,4.139-0.003
					c2.658-0.03,5.316-0.098,7.975-0.109c3.373-0.014,6.748,0.005,10.122,0.027c1.091,0.008,2.186,0.017,3.271,0.118
					c1.685,0.156,2.946,2.383,2.139,3.774c-0.17,0.293-0.599,0.612-0.914,0.62c-2.414,0.058-4.83,0.049-7.245,0.05
					c-4.037,0.001-8.073-0.011-12.11-0.008c-2.412,0.002-4.825-0.005-7.235,0.046c-1.25,0.027-2.499,0.145-3.744,0.269
					c-1.225,0.123-1.715-0.479-1.264-1.608c0.066-0.164,0.107-0.352,0.101-0.526c-0.104-2.462-0.268-4.922-0.318-7.384
					C81.062,339.584,81.081,336.239,81.062,332.702z"/>
				<path id="XMLID_166_" d="M102.373,320.538c-3.126,0-6.254-0.008-9.379,0.002c-3.014,0.009-6.028,0.036-9.043,0.065
					c-0.309,0.003-0.623,0.055-0.926,0.123c-0.979,0.219-1.777-0.045-2.084-1.029c-0.156-0.498,0.228-1.196,0.454-1.772
					c0.131-0.334,0.219-0.645,0.36-0.949c0.474-1.026,1.146-0.955,1.948-0.955c2.521-0.003,5.04-0.093,7.561-0.102
					c2.245-0.008,4.489,0.066,6.734,0.069c2.589,0.003,5.177-0.035,7.765-0.049c1.676-0.01,3.356-0.085,5.025,0.024
					c0.556,0.036,1.228,0.436,1.584,0.881c0.504,0.631,0.825,1.438,1.097,2.212c0.082,0.233-0.194,0.837-0.403,0.89
					c-1.135,0.288-2.297,0.594-3.459,0.64c-2.409,0.095-4.824,0.028-7.236,0.028C102.373,320.594,102.373,320.567,102.373,320.538z"
					/>
			</g>
		</g>
		<g id="XMLID_17_">
			<path id="XMLID_60_" d="M27.404,258.417c-0.016-0.178,0.051-0.361,0.159-0.566c1.329-3.435,3.996-4.907,8.295-3.353
				c4.08,1.476,5.995,4.182,4.758,7.458c-0.087,0.254-0.175,0.449-0.277,0.585c-0.167,0.208-0.383,0.284-0.795,0.159
				c-1.39-0.408-3.58-1.171-5.617-1.841c-2.082-0.692-4.138-1.311-6.188-2.04C27.505,258.719,27.425,258.573,27.404,258.417z
				 M39.606,261.605c1.296-2.251-0.884-4.959-4.171-6.105c-3.173-1.105-6.099-0.287-6.755,2.509
				c1.839,0.638,3.719,1.217,5.549,1.819C35.971,260.416,37.856,261.034,39.606,261.605z"/>
			<path id="XMLID_57_" d="M40.528,247.589l-5.322-3.253c-0.153-0.095-0.815-0.482-0.968-0.577
				c-0.195-0.121-0.391-0.453-0.162-0.755c0.813-1.239,2.338-3.909,2.728-4.34c0.092-0.113,0.371-0.086,0.506-0.003
				c0.412,0.254,0.287,0.556,0.128,0.813c-0.292,0.473-1.781,2.848-2.076,3.32l-0.178,0.284l4.469,2.663
				c0,0,1.583-2.485,2.035-3.323c0,0,0.112-0.244,0.208-0.371c0.133-0.175,0.421-0.099,0.527-0.033
				c0.317,0.199,0.357,0.475,0.216,0.742c-0.216,0.415-2.144,3.527-2.144,3.527l2.743,1.677l1.566,0.973
				c0.35,0.213,0.391,0.114,0.533-0.112c0.508-0.823,1.255-1.999,1.521-2.464l0.777-1.326c0.137-0.252,0.481-0.165,0.618-0.079
				c0.265,0.186,0.35,0.383,0.153,0.703c-0.894,1.546-1.632,2.667-2.571,4.187c-0.254,0.412-0.64,0.631-1.051,0.376L40.528,247.589z
				"/>
			<path id="XMLID_54_" d="M48.413,228.855c-0.121,0.257-0.437,0.427-0.755,0.213c-0.739-0.5-1.534-0.429-2.188,0.211
				c-1.051,1.023-0.976,2.147-0.325,2.784c0.69,0.678,2.043,0.775,4.13,0.717c3.173-0.096,4.466,0.167,5.64,1.372
				c1.483,1.524,1.059,3.235-0.241,4.565c-1.304,1.329-3.335,1.412-4.499,0.249c-0.27-0.238-0.233-0.553-0.046-0.769
				c0.174-0.203,0.503-0.311,0.782-0.083c0.893,0.801,2.109,0.788,3.02-0.121c1.026-1.023,1.105-2.123,0.16-3.048
				c-1.113-1.089-2.339-1.089-4.756-1.05c-2.414,0.038-3.968-0.036-4.942-0.985c-0.996-0.972-1.379-2.601,0.259-4.275
				c1.026-1.05,2.238-1.364,3.574-0.506C48.52,228.308,48.54,228.628,48.413,228.855z"/>
			<path id="XMLID_47_" d="M61.73,232.228c-0.345,0.188-0.61,0.087-0.727-0.117c-0.101-0.188-0.05-0.462,0.239-0.676
				c0.386-0.257,0.612-0.432,1.001-0.689c-2.07-3.091-4.223-6.491-6.518-9.663l-1.022,0.686c-0.335,0.179-0.604,0.061-0.736-0.133
				c-0.137-0.207-0.107-0.508,0.198-0.731c1.081-0.73,2.161-1.428,3.232-2.147c0.287-0.084,0.528-0.011,0.656,0.142
				c0.142,0.186,0.137,0.468-0.117,0.728c-0.416,0.274-0.818,0.544-1.245,0.809c0.448,0.602,0.922,1.341,1.199,1.756l5.302,7.917
				c0.449-0.325,0.744-0.501,1.204-0.806c0.356-0.112,0.622,0.033,0.698,0.238c0.046,0.166,0.005,0.363-0.203,0.568L61.73,232.228z"
				/>
			<path id="XMLID_44_" d="M72.323,219.491c-0.274,0.174-0.569-0.013-0.686-0.296c-0.096-0.228-0.061-0.514,0.244-0.664
				c0.572-0.299,1.479-0.586,2.152-0.927c0.383-0.2,0.757-0.279,1.055,0.333c0.553,1.126,1.35,3.158,2.022,4.797
				c0.096,0.232,0.137,0.465,0.016,0.77c-0.311,0.69-1.438,1.52-2.144,1.816c-2.738,1.155-5.488-0.809-7.099-4.482
				c-1.578-3.605-1.404-7.153,1.471-8.485c0.959-0.44,2.194-0.593,2.721-0.271c0.213,0.142,0.3,0.34,0.284,0.541
				c-0.025,0.265-0.257,0.495-0.556,0.429c-0.39-0.088-1.32-0.046-1.89,0.211c-2.429,1.105-2.173,4.433-0.945,7.198
				c1.54,3.468,3.764,4.644,5.612,3.864c0.528-0.221,1.371-0.793,1.516-1.279c-0.566-1.395-1.089-2.629-1.666-3.996
				c-0.124-0.298-0.165-0.436-0.552-0.254L72.323,219.491z"/>
			<path id="XMLID_35_" d="M81.478,208.426c0.213-0.121,0.487-0.112,0.665,0.104c1.603,1.914,3.082,3.689,4.594,5.454
				c1.148,1.338,2.155,2.724,3.343,4.108c-1.056-4.711-1.943-8.818-2.377-10.514c-0.046-0.356,0.113-0.632,0.391-0.693
				c0.282-0.063,0.689,0.121,0.724,0.444c0.049,0.298,0.383,1.873,0.481,2.309c0.719,3.191,1.252,5.491,2.231,9.849
				c0.099,0.435,0.241,0.99-0.336,1.121c-0.277,0.061-0.473-0.076-0.67-0.457c-1.2-1.359-2.576-3.155-4.141-4.985
				c-1.241-1.445-2.363-2.695-3.435-4.046c0.369,1.234,0.798,2.825,1.096,3.985c0.689,2.668,0.988,3.917,1.519,6.197
				c0.084,0.369-0.17,0.627-0.449,0.689c-0.262,0.059-0.564-0.055-0.64-0.407c-0.448-2.243-0.893-3.808-1.469-6.044
				c-0.512-1.974-1.168-4.482-1.758-6.529C81.165,208.734,81.302,208.521,81.478,208.426z"/>
			<path id="XMLID_31_" d="M110.679,207.418c0.088-0.342,0.153-0.823,0.656-0.702c0.693,0.178,1.62,0.46,2.634,0.943
				c1.445,0.678,2.351,2.052,2.075,3.926c-0.238,1.595-1.45,2.973-4.084,3.175c0.722,2.01,1.425,3.722,2.281,6.036
				c0.096,0.257,0.033,0.462-0.087,0.602c-0.211,0.232-0.624,0.2-0.813-0.224c-0.873-2.036-1.74-4.223-2.512-6.409
				c-0.166,0.003-0.328-0.01-0.486-0.025c-0.474,2.383-0.905,4.466-1.123,5.279c-0.086,0.328-0.351,0.457-0.599,0.424
				c-0.284-0.041-0.544-0.277-0.462-0.678C108.976,215.774,109.79,211.999,110.679,207.418z M110.548,213.726
				c3.036,0.238,4.078-0.84,4.379-2.314c0.221-1.064-0.211-2.338-1.819-3.036c-0.388-0.153-0.88-0.345-1.392-0.506
				C111.364,209.585,110.947,211.69,110.548,213.726z"/>
			<path id="XMLID_30_" d="M123.19,218.321l2.571-5.684c0.074-0.165,0.381-0.872,0.455-1.031c0.096-0.215,0.402-0.449,0.727-0.258
				c1.337,0.65,4.176,1.84,4.652,2.177c0.125,0.076,0.133,0.353,0.063,0.501c-0.199,0.44-0.514,0.353-0.793,0.225
				c-0.503-0.232-3.049-1.42-3.552-1.649l-0.311-0.142l-2.089,4.765c0,0,2.667,1.263,3.552,1.611c0,0,0.258,0.082,0.396,0.162
				c0.187,0.107,0.153,0.404,0.096,0.519c-0.155,0.341-0.427,0.415-0.709,0.303c-0.437-0.162-3.769-1.69-3.769-1.69l-1.329,2.932
				l-0.768,1.674c-0.174,0.374-0.066,0.404,0.178,0.516c0.879,0.402,2.139,1.001,2.632,1.207l1.412,0.61
				c0.27,0.104,0.224,0.457,0.158,0.602c-0.15,0.287-0.34,0.399-0.681,0.241c-1.649-0.697-2.85-1.293-4.477-2.035
				c-0.441-0.204-0.71-0.561-0.508-1.001L123.19,218.321z"/>
			<path id="XMLID_28_" d="M144.517,223.344c-0.263,0.117-0.578,0.061-0.64-0.252c-0.087-0.511-0.544-1.121-1.001-1.463
				c-2.136-1.592-4.537,0.52-6.301,2.973c-2.21,3.079-2.475,5.314-1.017,6.405c0.632,0.473,1.2,0.757,1.999,0.643
				c0.403-0.036,0.607,0.229,0.607,0.5c-0.003,0.241-0.183,0.509-0.541,0.574c-0.823,0.145-1.69-0.099-2.705-0.859
				c-2.235-1.669-1.57-4.764,0.782-8.008c2.308-3.181,5.193-5.043,7.729-3.149c0.772,0.577,1.392,1.395,1.458,2.022
				C144.916,223.019,144.73,223.239,144.517,223.344z"/>
			<path id="XMLID_27_" d="M141.987,237.87c-0.239-0.315-0.175-0.593,0.008-0.734c0.17-0.132,0.449-0.12,0.703,0.136
				c0.31,0.342,0.518,0.544,0.828,0.884c2.743-2.5,5.787-5.13,8.582-7.865l-0.831-0.913c-0.227-0.299-0.15-0.586,0.022-0.744
				c0.183-0.17,0.487-0.181,0.755,0.087c0.876,0.963,1.729,1.923,2.596,2.874c0.124,0.274,0.088,0.525-0.042,0.67
				c-0.161,0.17-0.44,0.208-0.735-0.008c-0.336-0.371-0.66-0.728-0.984-1.108c-0.532,0.528-1.188,1.105-1.559,1.443L144.296,239
				c0.388,0.395,0.602,0.66,0.973,1.067c0.162,0.336,0.061,0.624-0.133,0.73c-0.154,0.068-0.356,0.058-0.59-0.117L141.987,237.87z"
				/>
			<path id="XMLID_19_" d="M159.763,239.255c0,0,0.423-0.404,0.798,0.14c0.498,0.806,1.201,1.944,1.422,3.153
				c0.279,1.507-0.443,3-1.952,4.016c-2.566,1.728-5.38,0.673-6.966-1.835l-3.424,2.11c-0.269,0.271-0.66,0.179-0.864-0.076
				c-0.107-0.142-0.155-0.32-0.104-0.544c0.091-0.158,0.18-0.257,0.329-0.349C153.001,243.469,157.238,240.878,159.763,239.255z
				 M154.008,244.147c1.204,1.949,3.476,2.708,5.32,1.509c1.225-0.801,1.707-1.895,1.524-3.041c-0.096-0.593-0.645-1.657-0.91-2.123
				L154.008,244.147z"/>
			<path id="XMLID_18_" d="M160.186,255.373l5.856-2.147c0.17-0.063,0.887-0.341,1.054-0.399c0.219-0.079,0.599-0.028,0.691,0.337
				c0.473,1.408,1.616,4.266,1.707,4.84c0.03,0.14-0.162,0.342-0.312,0.399c-0.454,0.162-0.615-0.124-0.716-0.408
				c-0.187-0.519-1.126-3.168-1.313-3.685l-0.112-0.323l-4.868,1.849c0,0,0.971,2.787,1.342,3.66c0,0,0.121,0.239,0.162,0.396
				c0.055,0.208-0.183,0.39-0.302,0.432c-0.353,0.124-0.591-0.013-0.714-0.295c-0.192-0.427-1.433-3.873-1.433-3.873l-3.023,1.106
				l-1.732,0.628c-0.386,0.137-0.333,0.234-0.244,0.486c0.33,0.91,0.785,2.226,0.985,2.724l0.553,1.436
				c0.113,0.265-0.171,0.477-0.32,0.531c-0.309,0.096-0.519,0.038-0.645-0.315c-0.657-1.663-1.081-2.94-1.687-4.619
				c-0.163-0.457-0.096-0.897,0.357-1.059L160.186,255.373z"/>
		</g>
	</g>
</g>
</svg>
