<?xml version="1.0" encoding="utf-8"?>
<!-- Generator: Adobe Illustrator 25.0.1, SVG Export Plug-In . SVG Version: 6.00 Build 0)  -->
<svg version="1.1" id="Layer_1" xmlns="http://www.w3.org/2000/svg" xmlns:xlink="http://www.w3.org/1999/xlink" x="0px" y="0px"
	 viewBox="0 0 900 71" style="enable-background:new 0 0 900 71;" xml:space="preserve">
<style type="text/css">
	.st0{fill:#231F20;}
</style>
<g>
	<g id="XMLID_485_">
		<g>
			<g id="XMLID_505_">
				<path id="XMLID_523_" class="st0" d="M26.4,13.4v37H0v-37H26.4z M22.1,17.4H4.3v28.9h17.8C22.1,46.4,22.1,17.4,22.1,17.4z
					 M43.2,65.5h-4.4V8.2h4.4V65.5z"/>
				<path id="XMLID_520_" class="st0" d="M105.4,32.3v3.8H81.3v6.6h16.3V56H65v6h34.3v3.7H60.6V52.4h32.6v-6H60.3v-3.7h16.6v-6.6
					H52.8v-3.8H105.4z M79.1,19.1c-0.3,0.7-1.1,1.4-2.5,2.2c-1.4,0.8-3,1.6-4.9,2.5c-1.6,0.7-3.5,1.5-5.5,2.3
					C64,27,61.6,27.9,58.7,29l-1.8-3.6c2.5-0.9,5-1.8,7.4-2.8c2.4-1,4.4-1.8,6-2.5c1.3-0.5,2.3-1.1,3.2-1.6c0.9-0.5,1.5-1.1,2.1-1.7
					c0.5-0.6,0.9-1.2,1.1-1.8c0.2-0.6,0.3-1.4,0.3-2.2V8.7h4.4v4.2c0,0.8,0.1,1.5,0.3,2.2c0.2,0.6,0.6,1.3,1.1,1.8
					c0.5,0.6,1.2,1.1,2,1.7c0.9,0.5,1.9,1.1,3.2,1.6c1.5,0.7,3.5,1.5,5.9,2.5c2.4,0.9,4.8,1.9,7.4,2.8L99.7,29c-2.7-1-5.2-2-7.3-2.8
					c-2.2-0.9-4.1-1.7-5.7-2.4c-1.9-0.8-3.6-1.7-4.9-2.4C80.4,20.5,79.5,19.7,79.1,19.1L79.1,19.1L79.1,19.1z"/>
				<path id="XMLID_514_" class="st0" d="M129,14.6h14.3v3.9h-32.9v-3.9h14.2V7.4h4.3L129,14.6L129,14.6z M126.9,42.8
					c-2,0-3.8-0.3-5.4-0.8c-1.6-0.5-3-1.2-4.1-2.1c-1.1-0.9-2-1.9-2.6-3c-0.6-1.1-0.9-2.4-0.9-3.7V31c0-1.3,0.3-2.5,0.9-3.7
					c0.6-1.1,1.5-2.2,2.6-3c1.1-0.9,2.5-1.6,4.1-2.1c1.6-0.5,3.4-0.8,5.4-0.8c2,0,3.8,0.3,5.4,0.8c1.6,0.5,3,1.2,4.1,2.1
					c1.1,0.9,2,1.9,2.6,3c0.6,1.1,0.9,2.4,0.9,3.7v2.3c0,1.3-0.3,2.5-0.9,3.7c-0.6,1.1-1.5,2.2-2.6,3c-1.1,0.9-2.5,1.6-4.1,2.1
					C130.7,42.5,128.9,42.8,126.9,42.8z M126.9,25.1c-1.3,0-2.5,0.2-3.6,0.5c-1.1,0.3-2,0.7-2.8,1.3c-0.8,0.6-1.4,1.2-1.8,1.9
					c-0.4,0.7-0.7,1.5-0.7,2.3V33c0,0.8,0.2,1.6,0.7,2.3c0.4,0.7,1,1.4,1.8,1.9c0.8,0.6,1.7,1,2.8,1.3c1.1,0.3,2.3,0.5,3.6,0.5
					c1.3,0,2.5-0.2,3.6-0.5c1.1-0.3,2-0.7,2.8-1.3c0.8-0.6,1.4-1.2,1.8-1.9c0.4-0.7,0.7-1.5,0.7-2.3v-1.9c0-0.8-0.2-1.6-0.7-2.3
					c-0.4-0.7-1-1.4-1.8-1.9c-0.8-0.6-1.7-1-2.8-1.3C129.4,25.2,128.2,25.1,126.9,25.1z M118.9,47.2h35.8V66h-4.3V51.1h-31.5
					L118.9,47.2L118.9,47.2z M154.8,23.9h8.8v3.9h-8.8v16h-4.3V8.2h4.3V23.9z"/>
				<path id="XMLID_508_" class="st0" d="M205.4,36.9c-1.4,0.1-2.8,0.3-4.2,0.4c-1.4,0.1-2.8,0.2-4.3,0.4c-1.5,0.1-3,0.2-4.6,0.3
					c-1.6,0.1-3.4,0.1-5.2,0.2v9.1h-4.4v-9c-2.1,0.1-4.4,0.1-6.8,0.1s-5.1,0-8,0v-3.9c4.5,0,8.5,0,11.9-0.1c3.4,0,6.6-0.1,9.4-0.2
					c2.9-0.1,5.5-0.2,8-0.4c2.5-0.2,5.1-0.4,7.8-0.7L205.4,36.9z M185.7,30.4c-1.9,0-3.7-0.2-5.4-0.7c-1.7-0.5-3.1-1.1-4.4-2
					c-1.3-0.8-2.2-1.8-2.9-2.9c-0.7-1.1-1.1-2.4-1.1-3.7v-2.4c0-1.3,0.4-2.6,1.1-3.7c0.7-1.1,1.7-2.1,2.9-2.9c1.3-0.8,2.7-1.5,4.4-2
					c1.7-0.5,3.5-0.7,5.4-0.7c1.9,0,3.7,0.2,5.4,0.7c1.7,0.5,3.1,1.1,4.4,2c1.3,0.8,2.2,1.8,2.9,2.9c0.7,1.1,1.1,2.4,1.1,3.7v2.4
					c0,1.3-0.4,2.6-1.1,3.7c-0.7,1.1-1.7,2.1-2.9,2.9c-1.3,0.8-2.7,1.5-4.4,2C189.4,30.2,187.6,30.4,185.7,30.4z M185.7,13.1
					c-1.3,0-2.6,0.2-3.7,0.5c-1.1,0.3-2.2,0.7-3,1.3c-0.9,0.5-1.6,1.2-2.1,1.9c-0.5,0.7-0.8,1.5-0.8,2.3v1.6c0,0.8,0.2,1.6,0.8,2.3
					c0.5,0.7,1.2,1.3,2.1,1.9c0.9,0.5,1.9,1,3,1.3c1.1,0.3,2.4,0.5,3.7,0.5c1.3,0,2.5-0.2,3.7-0.5c1.2-0.3,2.2-0.7,3.1-1.3
					c0.9-0.5,1.6-1.2,2.1-1.9c0.5-0.7,0.8-1.5,0.8-2.3v-1.6c0-0.8-0.3-1.6-0.8-2.3c-0.5-0.7-1.2-1.4-2.1-1.9c-0.9-0.5-1.9-1-3.1-1.3
					C188.2,13.3,186.9,13.1,185.7,13.1z M182.1,60.9h33.4v3.9h-37.9V49.6h4.4L182.1,60.9L182.1,60.9z M209.8,42.7V8.2h4.3v44.5h-4.3
					v-6.1h-12.9v-3.9L209.8,42.7L209.8,42.7z"/>
				<path id="XMLID_506_" class="st0" d="M246.9,34.8h6.3v6.3h-6.3V34.8z"/>
			</g>
			<path id="XMLID_504_" class="st0" d="M299.4,45.7h5.8v-6.8c11.2,0,18.7-2.8,21.1-4v-5.3c0,0-5.7,4.2-26.3,4.2
				c-12.6,0-15.8,0-15.8,0v5.2h15.2L299.4,45.7L299.4,45.7z"/>
			<polygon id="XMLID_503_" class="st0" points="308.3,49.8 302.4,49.8 302.4,65.9 337.9,65.9 337.9,60.4 308.3,60.4 			"/>
			<polygon id="XMLID_502_" class="st0" points="331.5,52.7 337.3,52.7 337.3,3.9 331.5,3.9 331.5,42.1 319.4,42.1 319.4,47.3 
				331.5,47.3 			"/>
			<g id="XMLID_497_">
				<polygon id="XMLID_501_" class="st0" points="411.3,4.1 406.7,4.1 406.7,65.8 411.3,65.8 411.3,30.1 423.8,30.1 423.8,26 
					411.3,26 				"/>
				<path id="XMLID_498_" class="st0" d="M411.7,66.3h-5.5V3.7h5.5v21.9h12.5v5h-12.5V66.3z M407.1,65.4h3.7V29.7h12.5v-3.1h-12.5
					V4.6h-3.7V65.4z"/>
			</g>
			<g id="XMLID_492_">
				<rect id="XMLID_496_" x="431.3" y="55.4" class="st0" width="54" height="4.1"/>
				<path id="XMLID_493_" class="st0" d="M485.8,60h-54.9v-5.1h54.9V60z M431.8,59h53.1v-3.2h-53.1L431.8,59L431.8,59z"/>
			</g>
			<g id="XMLID_487_">
				<polygon id="XMLID_491_" class="st0" points="476.2,9.8 442.6,9.8 442.6,13.9 476.2,13.9 				"/>
				<path id="XMLID_488_" class="st0" d="M442.2,14.3v-5h34.4v5L442.2,14.3z M443.1,10.2v3.2l32.6,0v-3.1L443.1,10.2L443.1,10.2z"/>
			</g>
			<g id="XMLID_451_">
				<polygon id="XMLID_486_" class="st0" points="447.2,28.4 475.6,28.4 475.6,24.3 442.6,24.3 442.6,43.5 476.7,43.5 476.7,39.3 
					447.2,39.3 				"/>
				<path id="XMLID_452_" class="st0" d="M477.2,44h-35V23.8l33.9,0v5.1h-28.5v10h29.5V44z M443.1,43.1h33.1v-3.3h-29.5V28h28.5
					v-3.2l-32.1,0V43.1z"/>
			</g>
			<g id="XMLID_442_">
				<path id="XMLID_448_" class="st0" d="M395.3,18.1c-1.4-1.2-3.1-2.1-5.1-2.8c-1.9-0.6-4-1-6.3-1c-2.3,0-4.6,0.4-6.5,1
					c-2,0.7-3.8,1.7-5.3,3c-1.6,1.4-2.8,3-3.6,4.8c-0.8,1.8-1.2,3.7-1.2,5.9c0,2.4,0.5,4.6,1.5,6.5c1,1.9,2.4,3.5,4,4.8
					c1.5,1.2,3.2,2.1,5,2.7c1.8,0.6,3.9,0.9,5.9,0.9h0c2.1,0,4.2-0.3,6-0.9c1.9-0.6,3.7-1.6,5.3-3c1.5-1.2,2.7-2.8,3.7-4.7
					c0.9-1.9,1.4-4,1.4-6.2c0-2.1-0.4-4.2-1.3-6C398.2,21.2,396.9,19.5,395.3,18.1z M394.5,34.5c-0.8,1.5-1.8,2.8-3.1,3.7
					c-1,0.8-2.2,1.5-3.5,1.9c-1.2,0.4-2.7,0.7-4.1,0.7c-1.5,0-2.9-0.2-4.2-0.7c-1.3-0.4-2.4-1.1-3.4-1.8c-1.4-1.1-2.4-2.4-3.2-3.9
					c-0.8-1.5-1.1-3.3-1.1-5.3c0-1.7,0.4-3.4,1.1-5c0.7-1.6,1.8-2.9,3.1-4c1-0.9,2.2-1.5,3.5-1.9c2.5-0.9,5.9-0.9,8.3,0
					c1.2,0.4,2.3,1,3.4,1.8c1.5,1.1,2.6,2.6,3.3,4.3c0.7,1.7,1.1,3.5,1.1,5.2C395.7,31.3,395.3,33,394.5,34.5z"/>
				<path id="XMLID_443_" class="st0" d="M383.8,44.4c-2.1,0-4.2-0.3-6.1-0.9c-1.9-0.6-3.7-1.5-5.2-2.7c-1.7-1.3-3.1-3-4.1-4.9
					c-1-2-1.6-4.3-1.6-6.7c0-2.2,0.4-4.2,1.2-6.1c0.8-1.8,2.1-3.5,3.7-4.9c1.5-1.3,3.3-2.4,5.4-3.1c4-1.4,9.2-1.4,13.1-0.1
					c2,0.7,3.8,1.7,5.2,2.9c1.7,1.4,3,3.1,3.9,5.1c0.9,1.9,1.3,4,1.3,6.2c0,2.3-0.5,4.5-1.5,6.4c-1,1.9-2.3,3.6-3.8,4.8
					c-1.7,1.4-3.6,2.4-5.5,3.1C388.1,44.1,386,44.4,383.8,44.4z M383.9,14.8c-2.3,0-4.5,0.4-6.4,1c-2,0.7-3.7,1.7-5.1,3
					c-1.5,1.4-2.7,2.9-3.5,4.6c-0.8,1.7-1.2,3.6-1.2,5.7c0,2.3,0.5,4.5,1.5,6.3c1,1.9,2.3,3.4,3.9,4.6c1.4,1.1,3.1,2,4.9,2.6
					c3.6,1.1,8.2,1.1,11.7,0c1.8-0.6,3.6-1.6,5.2-2.9c1.5-1.2,2.7-2.7,3.6-4.5c0.9-1.8,1.4-3.8,1.4-6c0-2.1-0.4-4-1.2-5.8
					c-0.8-1.8-2.1-3.4-3.7-4.8l0,0c-1.4-1.2-3-2.1-4.9-2.7C388.2,15.1,386.1,14.8,383.9,14.8z M383.8,41.2c-1.5,0-3-0.2-4.3-0.7
					c-1.3-0.5-2.5-1.1-3.5-1.9c-1.4-1.1-2.5-2.5-3.3-4.1c-0.8-1.6-1.2-3.4-1.2-5.5c0-1.8,0.4-3.5,1.2-5.2c0.8-1.7,1.8-3.1,3.2-4.2
					c1.1-0.9,2.3-1.6,3.6-2c2.6-0.9,6.1-0.9,8.6,0c1.3,0.4,2.4,1.1,3.5,1.9c1.5,1.2,2.7,2.7,3.4,4.5c0.7,1.8,1.1,3.6,1.1,5.4
					c0,1.9-0.4,3.7-1.2,5.2c-0.8,1.6-1.9,2.9-3.2,3.9c-1.1,0.8-2.3,1.5-3.6,2C386.8,41,385.3,41.2,383.8,41.2z M383.9,17.9
					c-1.4,0-2.9,0.2-4.1,0.6c-1.2,0.4-2.3,1-3.4,1.9c-1.3,1-2.3,2.3-3,3.9c-0.7,1.5-1.1,3.2-1.1,4.8c0,1.9,0.4,3.6,1.1,5.1
					c0.7,1.5,1.7,2.7,3.1,3.8c0.9,0.7,2,1.3,3.2,1.7c2.4,0.8,5.6,0.9,8,0c1.2-0.4,2.4-1,3.3-1.8c1.2-0.9,2.2-2.2,2.9-3.6
					c0.8-1.4,1.1-3.1,1.1-4.8c0-1.7-0.4-3.4-1-5c-0.7-1.6-1.7-3-3.1-4.1c-1-0.8-2.1-1.4-3.2-1.8C386.7,18.1,385.3,17.9,383.9,17.9z"
					/>
			</g>
			<path id="XMLID_439_" class="st0" d="M316.1,11.6c-0.8-1.7-1.9-3.2-3.4-4.4c-1.3-1.1-2.8-1.9-4.5-2.5c-3.4-1.2-7.8-1.2-11.2,0.1
				c-1.8,0.6-3.4,1.5-4.7,2.7c-1.4,1.2-2.5,2.7-3.2,4.2c-0.7,1.6-1.1,3.3-1.1,5.2c0,2.1,0.5,4.1,1.4,5.8c0.9,1.7,2.1,3.1,3.5,4.3
				c1.3,1,2.8,1.8,4.5,2.3c1.6,0.5,3.4,0.8,5.2,0.8c1.9,0,3.7-0.3,5.3-0.8c1.7-0.5,3.3-1.4,4.7-2.6c1.3-1.1,2.5-2.5,3.3-4.2
				c0.8-1.7,1.3-3.5,1.3-5.6C317.3,15.1,316.9,13.3,316.1,11.6z M299.3,25.7c-1-0.4-1.9-0.8-2.7-1.4c-1.1-0.8-1.9-1.9-2.5-3.1
				c-0.6-1.2-0.9-2.6-0.9-4.2c0-1.4,0.3-2.7,0.9-4c0.6-1.3,1.4-2.3,2.5-3.2c0.8-0.7,1.8-1.2,2.8-1.5c1-0.3,2.2-0.5,3.4-0.5
				c1.2,0,2.3,0.2,3.3,0.5c1,0.3,1.9,0.8,2.7,1.5c1.2,0.9,2,2.1,2.6,3.4c0.6,1.4,0.9,2.8,0.9,4.2c0,1.5-0.3,2.8-0.9,4
				c-0.6,1.2-1.4,2.2-2.4,3c-0.8,0.7-1.8,1.2-2.8,1.5C304,26.5,301.3,26.4,299.3,25.7z"/>
		</g>
	</g>
	<g id="XMLID_303_">
		<g>
			<path id="XMLID_244_" class="st0" d="M577.2,38.3c0,4.3-0.8,7.6-2.5,9.9c-1.6,2.3-4.3,3.4-8,3.4c-3.6,0-6.2-1.2-7.9-3.5
				c-1.6-2.3-2.5-5.6-2.5-9.9v-4.7c0-4.3,0.8-7.5,2.5-9.9c1.7-2.3,4.3-3.5,7.8-3.5c3.6,0,6.3,1.1,7.9,3.4c1.7,2.3,2.5,5.6,2.5,9.9
				L577.2,38.3L577.2,38.3z M574.2,33.6c0-3.8-0.6-6.5-1.8-8.2c-1.2-1.7-3.1-2.5-5.5-2.5c-2.3,0-4.1,0.8-5.4,2.5
				c-1.3,1.7-1.9,4.4-1.9,8.1v4.8c0,3.8,0.6,6.5,1.9,8.2c1.3,1.7,3.1,2.5,5.4,2.5c2.4,0,4.3-0.8,5.5-2.5c1.2-1.7,1.9-4.4,1.9-8.2
				L574.2,33.6L574.2,33.6z"/>
			<path id="XMLID_242_" class="st0" d="M583.1,25c0.4-0.6,0.8-1.2,1.4-1.8c0.5-0.6,1.2-1.1,1.9-1.5c0.7-0.4,1.5-0.8,2.5-1.1
				c0.9-0.3,2-0.4,3.1-0.4c1.4,0,2.6,0.2,3.7,0.6c1.1,0.4,2.1,0.9,2.8,1.5c0.8,0.7,1.4,1.5,1.8,2.4c0.4,0.9,0.6,2,0.6,3.1v0.4
				c0,0.6-0.1,1.2-0.3,1.9c-0.2,0.7-0.5,1.3-0.8,1.9c-0.4,0.6-0.9,1.2-1.6,1.7c-0.7,0.5-1.5,1-2.5,1.3c2.1,0.4,3.7,1.2,4.8,2.5
				c1.1,1.3,1.6,2.8,1.6,4.6v0.6c0,1.1-0.2,2.2-0.5,3.2c-0.4,1-1,2-1.8,2.8c-0.8,0.8-1.9,1.5-3.2,2c-1.3,0.5-2.9,0.8-4.8,0.8
				c-1.8,0-3.5-0.3-5.1-0.8c-1.7-0.6-3.2-1.4-4.6-2.6l1.5-2.4c1.5,1.1,2.9,1.9,4.2,2.3c1.3,0.5,2.7,0.7,4.1,0.7
				c1.3,0,2.5-0.2,3.4-0.6c0.9-0.4,1.7-0.8,2.3-1.4c0.6-0.6,1-1.2,1.3-2c0.3-0.7,0.4-1.4,0.4-2.1v-0.5c0-1.2-0.2-2.1-0.7-2.9
				c-0.5-0.7-1-1.3-1.7-1.8c-0.7-0.4-1.5-0.7-2.3-0.9c-0.8-0.2-1.6-0.3-2.3-0.3h-3.4V34h3.6c1,0,1.8-0.2,2.5-0.5
				c0.7-0.4,1.3-0.8,1.8-1.4c0.5-0.6,0.8-1.2,1.1-1.9c0.2-0.7,0.4-1.4,0.4-2v-0.3c0-1.5-0.5-2.7-1.6-3.6c-1.1-0.9-2.5-1.3-4.4-1.3
				c-1.2,0-2.4,0.2-3.5,0.7c-1.1,0.5-2.1,1.4-3,2.8L583.1,25z"/>
			<path id="XMLID_240_" class="st0" d="M618.2,51.2V24.4l-7.4,4.5l-1.4-2.4l9.4-5.8h2.2v30.5L618.2,51.2L618.2,51.2z"/>
			<path id="XMLID_238_" class="st0" d="M637.3,36.4c0-3.4-0.4-6.7-1.3-9.8c-0.9-3.1-2.4-6.1-4.5-8.9h2.7c2.1,2.5,3.7,5.4,4.7,8.5
				c1,3.2,1.5,6.6,1.5,10.4v1.7c0,3.8-0.5,7.3-1.5,10.5c-1,3.2-2.6,6-4.7,8.6h-2.7c2.2-3,3.7-6.1,4.5-9.2c0.8-3.2,1.3-6.4,1.3-9.6
				V36.4z"/>
			<path id="XMLID_236_" class="st0" d="M657.8,25c0.4-0.6,0.8-1.2,1.4-1.8c0.5-0.6,1.2-1.1,1.9-1.5c0.7-0.4,1.5-0.8,2.5-1.1
				c0.9-0.3,2-0.4,3.1-0.4c1.4,0,2.6,0.2,3.7,0.6c1.1,0.4,2.1,0.9,2.8,1.5c0.8,0.7,1.4,1.5,1.8,2.4c0.4,0.9,0.6,2,0.6,3.1v0.4
				c0,0.6-0.1,1.2-0.3,1.9c-0.2,0.7-0.5,1.3-0.8,1.9c-0.4,0.6-0.9,1.2-1.6,1.7c-0.7,0.5-1.5,1-2.5,1.3c2.1,0.4,3.7,1.2,4.8,2.5
				c1.1,1.3,1.6,2.8,1.6,4.6v0.6c0,1.1-0.2,2.2-0.6,3.2c-0.4,1-1,2-1.8,2.8c-0.8,0.8-1.9,1.5-3.2,2c-1.3,0.5-2.9,0.8-4.8,0.8
				c-1.8,0-3.5-0.3-5.1-0.8c-1.7-0.6-3.2-1.4-4.6-2.6l1.5-2.4c1.5,1.1,2.9,1.9,4.2,2.3c1.3,0.5,2.7,0.7,4.1,0.7
				c1.3,0,2.5-0.2,3.4-0.6c0.9-0.4,1.7-0.8,2.3-1.4c0.6-0.6,1-1.2,1.3-2c0.3-0.7,0.4-1.4,0.4-2.1v-0.5c0-1.2-0.2-2.1-0.7-2.9
				c-0.5-0.7-1-1.3-1.7-1.8c-0.7-0.4-1.5-0.7-2.3-0.9c-0.8-0.2-1.6-0.3-2.3-0.3h-3.4V34h3.6c1,0,1.8-0.2,2.5-0.5
				c0.7-0.4,1.3-0.8,1.8-1.4c0.5-0.6,0.8-1.2,1.1-1.9c0.2-0.7,0.4-1.4,0.4-2v-0.3c0-1.5-0.5-2.7-1.6-3.6c-1.1-0.9-2.5-1.3-4.4-1.3
				c-1.2,0-2.4,0.2-3.5,0.7c-1.1,0.5-2.1,1.4-3,2.8L657.8,25z"/>
			<path id="XMLID_232_" class="st0" d="M682.5,42.8c0-1.7,0.5-3.2,1.5-4.5c1-1.3,2.4-2.2,4-2.7c-1.5-0.7-2.6-1.6-3.4-2.8
				c-0.8-1.2-1.2-2.6-1.2-4.2v-0.7c0-1.1,0.2-2.1,0.7-3c0.4-0.9,1.1-1.7,1.8-2.4c0.8-0.7,1.7-1.2,2.8-1.6c1.1-0.4,2.3-0.6,3.5-0.6
				c1.3,0,2.5,0.2,3.5,0.6c1.1,0.4,2,0.9,2.8,1.6c0.8,0.7,1.4,1.5,1.8,2.4c0.4,0.9,0.7,2,0.7,3v0.7c0,1.6-0.4,3-1.2,4.2
				c-0.8,1.2-2,2.2-3.5,2.8c0.8,0.3,1.6,0.6,2.3,1.1c0.7,0.5,1.3,1,1.8,1.6c0.5,0.6,0.9,1.3,1.2,2.1c0.3,0.7,0.4,1.5,0.4,2.4v0.7
				c0,1.2-0.2,2.3-0.7,3.3c-0.5,1-1.1,1.9-2,2.6c-0.9,0.7-1.9,1.3-3.1,1.7c-1.2,0.4-2.6,0.6-4,0.6c-1.5,0-2.8-0.2-4-0.6
				c-1.2-0.4-2.3-1-3.1-1.7c-0.9-0.7-1.5-1.6-2-2.6c-0.5-1-0.7-2.1-0.7-3.3L682.5,42.8L682.5,42.8z M685.5,43.4
				c0,0.8,0.2,1.5,0.5,2.2c0.3,0.7,0.8,1.3,1.4,1.8c0.6,0.5,1.3,0.9,2.1,1.2c0.8,0.3,1.8,0.4,2.9,0.4c1.1,0,2-0.1,2.9-0.4
				c0.8-0.3,1.6-0.7,2.1-1.2c0.6-0.5,1-1.1,1.3-1.8c0.3-0.7,0.5-1.4,0.5-2.2v-0.5c0-0.9-0.2-1.7-0.5-2.5c-0.3-0.7-0.8-1.4-1.4-1.9
				c-0.6-0.5-1.3-0.9-2.1-1.2c-0.8-0.3-1.8-0.4-2.8-0.4c-1,0-1.9,0.1-2.7,0.4c-0.8,0.3-1.6,0.7-2.2,1.2c-0.6,0.5-1.1,1.2-1.4,1.9
				c-0.3,0.7-0.5,1.6-0.5,2.5L685.5,43.4L685.5,43.4z M686.4,28.5c0,0.8,0.1,1.6,0.4,2.3c0.3,0.7,0.7,1.4,1.2,1.9
				c0.5,0.5,1.1,1,1.9,1.3c0.7,0.3,1.5,0.5,2.4,0.5c0.9,0,1.7-0.2,2.4-0.5c0.7-0.3,1.4-0.7,1.9-1.3c0.5-0.5,0.9-1.2,1.2-1.9
				s0.4-1.5,0.4-2.3V28c0-1.6-0.5-2.8-1.6-3.7c-1.1-0.9-2.5-1.4-4.3-1.4c-1.8,0-3.3,0.5-4.3,1.4c-1.1,0.9-1.6,2.2-1.6,3.7
				L686.4,28.5L686.4,28.5z"/>
			<path id="XMLID_228_" class="st0" d="M707.9,42.8c0-1.7,0.5-3.2,1.5-4.5c1-1.3,2.4-2.2,4-2.7c-1.5-0.7-2.6-1.6-3.4-2.8
				c-0.8-1.2-1.2-2.6-1.2-4.2v-0.7c0-1.1,0.2-2.1,0.7-3c0.4-0.9,1.1-1.7,1.8-2.4c0.8-0.7,1.7-1.2,2.8-1.6c1.1-0.4,2.3-0.6,3.5-0.6
				c1.3,0,2.5,0.2,3.5,0.6c1.1,0.4,2,0.9,2.8,1.6c0.8,0.7,1.4,1.5,1.8,2.4c0.4,0.9,0.7,2,0.7,3v0.7c0,1.6-0.4,3-1.2,4.2
				c-0.8,1.2-2,2.2-3.5,2.8c0.8,0.3,1.6,0.6,2.3,1.1c0.7,0.5,1.3,1,1.8,1.6c0.5,0.6,0.9,1.3,1.2,2.1c0.3,0.7,0.4,1.5,0.4,2.4v0.7
				c0,1.2-0.2,2.3-0.7,3.3c-0.5,1-1.1,1.9-2,2.6c-0.9,0.7-1.9,1.3-3.1,1.7c-1.2,0.4-2.6,0.6-4,0.6c-1.5,0-2.8-0.2-4-0.6
				c-1.2-0.4-2.3-1-3.1-1.7c-0.9-0.7-1.5-1.6-2-2.6c-0.5-1-0.7-2.1-0.7-3.3L707.9,42.8L707.9,42.8z M710.9,43.4
				c0,0.8,0.2,1.5,0.5,2.2c0.3,0.7,0.8,1.3,1.4,1.8c0.6,0.5,1.3,0.9,2.1,1.2c0.8,0.3,1.8,0.4,2.9,0.4c1.1,0,2-0.1,2.9-0.4
				c0.8-0.3,1.6-0.7,2.1-1.2c0.6-0.5,1-1.1,1.3-1.8c0.3-0.7,0.5-1.4,0.5-2.2v-0.5c0-0.9-0.2-1.7-0.5-2.5c-0.3-0.7-0.8-1.4-1.4-1.9
				c-0.6-0.5-1.3-0.9-2.1-1.2c-0.8-0.3-1.8-0.4-2.8-0.4c-1,0-1.9,0.1-2.7,0.4c-0.8,0.3-1.6,0.7-2.2,1.2c-0.6,0.5-1.1,1.2-1.4,1.9
				c-0.3,0.7-0.5,1.6-0.5,2.5L710.9,43.4L710.9,43.4z M711.8,28.5c0,0.8,0.1,1.6,0.4,2.3c0.3,0.7,0.7,1.4,1.2,1.9
				c0.5,0.5,1.1,1,1.9,1.3c0.7,0.3,1.5,0.5,2.4,0.5c0.9,0,1.7-0.2,2.4-0.5c0.7-0.3,1.4-0.7,1.9-1.3c0.5-0.5,0.9-1.2,1.2-1.9
				s0.4-1.5,0.4-2.3V28c0-1.6-0.5-2.8-1.6-3.7c-1.1-0.9-2.5-1.4-4.3-1.4c-1.8,0-3.3,0.5-4.3,1.4c-1.1,0.9-1.6,2.2-1.6,3.7V28.5z"/>
			<path id="XMLID_226_" class="st0" d="M747.6,35.2h4.3v4.2h-4.3V35.2z"/>
			<path id="XMLID_224_" class="st0" d="M783.7,35.4c0.8-1,1.5-1.8,2-2.5c0.5-0.7,0.9-1.3,1.2-1.9c0.3-0.6,0.4-1,0.5-1.5
				c0.1-0.4,0.1-0.8,0.1-1.2v-0.3c0-1.5-0.5-2.7-1.5-3.6c-1-0.9-2.4-1.3-4.3-1.3c-1.4,0-2.6,0.3-3.8,1c-1.2,0.6-2.3,1.9-3.3,3.6
				l-2.4-1.5c0.4-0.7,0.8-1.3,1.4-2c0.5-0.7,1.2-1.3,1.9-1.9c0.8-0.6,1.6-1,2.6-1.4c1-0.4,2.1-0.6,3.4-0.6c1.4,0,2.6,0.2,3.7,0.6
				c1.1,0.4,2,0.9,2.8,1.5c0.8,0.7,1.4,1.5,1.8,2.4s0.6,2,0.6,3.1v0.4c0,0.8-0.1,1.6-0.4,2.4c-0.3,0.8-0.7,1.5-1.1,2.3
				c-0.5,0.7-1,1.5-1.6,2.2c-0.6,0.7-1.3,1.5-1.9,2.2L776,48.5h15.7v2.7h-19.4v-2.5L783.7,35.4z"/>
			<path id="XMLID_222_" class="st0" d="M814.5,42c0-2.5-0.6-4.2-1.8-5.4c-1.2-1.1-2.9-1.7-5.1-1.7c-1.3,0-2.5,0.2-3.5,0.7
				c-1,0.5-1.9,1-2.5,1.7h-2.8l1-16.7h15.7v2.7h-13.1l-0.5,11.1c0.7-0.6,1.6-1.2,2.8-1.5c1.2-0.4,2.4-0.6,3.6-0.6
				c1.5,0,2.8,0.2,4,0.7c1.1,0.5,2.1,1.2,2.9,2c0.8,0.8,1.3,1.9,1.7,3c0.4,1.2,0.6,2.4,0.6,3.8v0.6c0,1.1-0.2,2.2-0.5,3.3
				c-0.4,1.1-1,2.1-1.8,2.9c-0.8,0.9-1.9,1.6-3.2,2.1c-1.3,0.5-2.9,0.8-4.8,0.8c-2.1,0-3.9-0.3-5.5-0.9c-1.6-0.6-3-1.4-4.4-2.5
				l1.5-2.4c1.5,1.1,2.9,1.9,4.2,2.4c1.3,0.5,2.7,0.7,4.2,0.7c1.4,0,2.5-0.2,3.5-0.6c0.9-0.4,1.7-0.9,2.3-1.5c0.6-0.6,1-1.3,1.3-2.1
				c0.3-0.7,0.4-1.5,0.4-2.2L814.5,42L814.5,42z"/>
			<path id="XMLID_219_" class="st0" d="M840.3,24.7c-1-0.6-2-1-3.1-1.3s-2.2-0.5-3.4-0.5c-1.4,0-2.7,0.3-3.6,0.9
				c-1,0.6-1.8,1.4-2.5,2.5c-0.7,1.1-1.1,2.4-1.5,4c-0.3,1.6-0.6,3.4-0.7,5.4c0.2-0.5,0.6-0.9,1-1.4c0.4-0.5,1-1,1.6-1.4
				c0.6-0.4,1.4-0.8,2.2-1c0.8-0.3,1.8-0.4,2.9-0.4c1.3,0,2.5,0.2,3.7,0.6c1.2,0.4,2.2,1,3.1,1.8c0.9,0.8,1.6,1.8,2.1,3
				c0.5,1.2,0.8,2.5,0.8,4v1c0,1.5-0.3,2.8-0.8,4.1c-0.5,1.2-1.2,2.2-2.1,3.1c-0.9,0.8-1.9,1.5-3.2,2c-1.2,0.5-2.5,0.7-4,0.7
				c-1.4,0-2.8-0.2-4-0.7c-1.3-0.5-2.4-1.2-3.3-2.3c-0.9-1-1.7-2.3-2.2-3.9c-0.5-1.6-0.8-3.4-0.8-5.5v-1c0-3.3,0.3-6,0.8-8.3
				c0.5-2.3,1.3-4.1,2.2-5.6c1-1.4,2.1-2.5,3.5-3.1c1.4-0.6,3-1,4.7-1c1.4,0,2.7,0.2,4.1,0.5c1.3,0.4,2.6,0.9,3.7,1.5L840.3,24.7z
				 M825.8,41.4c0,1.2,0.2,2.2,0.5,3.1c0.3,0.9,0.8,1.7,1.4,2.4c0.6,0.7,1.4,1.2,2.2,1.6c0.9,0.4,1.8,0.6,2.9,0.6c1,0,2-0.2,2.9-0.5
				c0.9-0.3,1.6-0.8,2.3-1.4c0.6-0.6,1.1-1.4,1.5-2.3c0.4-0.9,0.5-1.9,0.5-3.1v-0.6c0-1.1-0.2-2.1-0.6-3c-0.4-0.9-0.9-1.6-1.6-2.2
				c-0.6-0.6-1.4-1.1-2.3-1.4c-0.9-0.3-1.8-0.5-2.7-0.5c-0.9,0-1.8,0.2-2.6,0.5c-0.8,0.3-1.6,0.8-2.2,1.4c-0.7,0.6-1.2,1.3-1.6,2.1
				c-0.4,0.8-0.6,1.7-0.6,2.7L825.8,41.4L825.8,41.4z"/>
			<path id="XMLID_217_" class="st0" d="M865.3,42c0-2.5-0.6-4.2-1.8-5.4c-1.2-1.1-2.9-1.7-5.1-1.7c-1.3,0-2.5,0.2-3.5,0.7
				c-1,0.5-1.9,1-2.5,1.7h-2.8l1-16.7h15.7v2.7h-13.1l-0.5,11.1c0.7-0.6,1.6-1.2,2.8-1.5c1.2-0.4,2.4-0.6,3.6-0.6
				c1.5,0,2.8,0.2,4,0.7c1.1,0.5,2.1,1.2,2.9,2c0.8,0.8,1.3,1.9,1.7,3c0.4,1.2,0.6,2.4,0.6,3.8v0.6c0,1.1-0.2,2.2-0.5,3.3
				c-0.4,1.1-1,2.1-1.8,2.9c-0.8,0.9-1.9,1.6-3.2,2.1c-1.3,0.5-2.9,0.8-4.8,0.8c-2.1,0-3.9-0.3-5.5-0.9c-1.6-0.6-3-1.4-4.4-2.5
				l1.5-2.4c1.5,1.1,2.9,1.9,4.2,2.4c1.3,0.5,2.7,0.7,4.2,0.7c1.4,0,2.5-0.2,3.5-0.6c0.9-0.4,1.7-0.9,2.3-1.5c0.6-0.6,1-1.3,1.3-2.1
				c0.3-0.7,0.4-1.5,0.4-2.2L865.3,42L865.3,42z"/>
		</g>
	</g>
	<path id="XMLID_91_" class="st0" d="M897.9,2.5v66H537.7v-66H897.9 M900,0.4H535.7v70.1H900L900,0.4L900,0.4z"/>
</g>
</svg>
