<?xml version="1.0" encoding="iso-8859-1"?>
<!-- Generator: Adobe Illustrator 25.0.1, SVG Export Plug-In . SVG Version: 6.00 Build 0)  -->
<svg version="1.1" id="Layer_1" xmlns="http://www.w3.org/2000/svg" xmlns:xlink="http://www.w3.org/1999/xlink" x="0px" y="0px"
	 viewBox="0 0 280 140" style="enable-background:new 0 0 280 140;" xml:space="preserve">
<g>
	<g>
		<g>
			<path style="fill:none;stroke:#D68D5D;stroke-linecap:round;stroke-miterlimit:10;" d="M150.8,28.851
				c0,0.167-0.003,0.334-0.009,0.5"/>
			<path style="fill:none;stroke:#D68D5D;stroke-linecap:round;stroke-miterlimit:10;stroke-dasharray:0.9646,9.646;" d="
				M147.17,38.073c-2.469,2.648-5.988,4.303-9.894,4.303c-5.63,0-10.456-3.44-12.492-8.333"/>
			<path style="fill:none;stroke:#D68D5D;stroke-linecap:round;stroke-miterlimit:10;" d="M123.76,29.351
				c-0.006-0.166-0.009-0.333-0.009-0.5"/>
		</g>
	</g>
	<g>
		<g>
			<path style="fill:none;stroke:#D68D5D;stroke-linecap:round;stroke-miterlimit:10;" d="M234.583,28.851
				c0,0.167,0,0.333-0.001,0.5"/>
			<path style="fill:none;stroke:#D68D5D;stroke-linecap:round;stroke-miterlimit:10;stroke-dasharray:0.9925,9.9254;" d="
				M234.032,39.263c-5.196,48.846-46.533,86.896-96.756,86.896c-51.909,0-94.325-40.646-97.156-91.848"/>
			<path style="fill:none;stroke:#D68D5D;stroke-linecap:round;stroke-miterlimit:10;" d="M39.97,29.351
				c-0.001-0.167-0.001-0.333-0.001-0.5"/>
		</g>
	</g>
	<g>
		<g>
			<path style="fill:none;stroke:#D68D5D;stroke-linecap:round;stroke-miterlimit:10;" d="M189.117,28.851
				c0,0.167-0.001,0.334-0.002,0.5"/>
			<path style="fill:none;stroke:#D68D5D;stroke-linecap:round;stroke-miterlimit:10;stroke-dasharray:0.9867,9.8672;" d="
				M188.094,39.155c-4.778,23.695-25.714,41.538-50.818,41.538c-26.796,0-48.843-20.33-51.56-46.407"/>
			<path style="fill:none;stroke:#D68D5D;stroke-linecap:round;stroke-miterlimit:10;" d="M85.437,29.351
				c-0.002-0.166-0.002-0.333-0.002-0.5"/>
		</g>
	</g>
	<g>
		<g>
			<path style="fill:none;stroke:#D68D5D;stroke-linecap:round;stroke-miterlimit:10;" d="M162.549,28.851
				c0,0.167-0.002,0.334-0.005,0.5"/>
			<path style="fill:none;stroke:#D68D5D;stroke-linecap:round;stroke-miterlimit:10;stroke-dasharray:1.0313,10.3126;" d="
				M160.274,39.346c-3.985,8.72-12.784,14.779-22.998,14.779c-12.027,0-22.093-8.402-24.646-19.656"/>
			<path style="fill:none;stroke:#D68D5D;stroke-linecap:round;stroke-miterlimit:10;" d="M112.008,29.351
				c-0.003-0.166-0.005-0.333-0.005-0.5"/>
		</g>
	</g>
	<g>
		<g>
			<path style="fill:#2483C5;" d="M209.672,127.122h4.014v-2.027h-0.248c-1.345,0-2.4-0.766-2.4-2.193v-0.601
				c0-0.642,0.228-1.056,0.662-1.282h-1.572v-0.952h3.601v-1.759h1.676v1.759h3.559v0.952h-1.655
				c0.435,0.227,0.621,0.641,0.621,1.282v0.601c0,1.428-1.056,2.193-2.4,2.193h-0.331v2.027h4.966v1.138h-10.49V127.122z
				 M211.534,130.392h11.67v1.199c0,0.973-0.207,2.131-0.456,2.69l-0.289,0.642h-1.511c0.311-0.642,0.518-1.263,0.579-1.697
				c0.062-0.352,0.083-0.973,0.042-1.572h-10.035V130.392z M212.445,122.942c0,0.538,0.29,1.283,1.428,1.283h1.241
				c1.117,0,1.407-0.745,1.407-1.283v-0.455c0-0.786-0.435-1.365-1.407-1.365h-1.262c-0.973,0-1.407,0.579-1.407,1.365V122.942z
				 M221.528,118.7h1.594v3.56h2.565v1.304h-2.565v5.317h-1.594V118.7z"/>
			<path style="fill:#2483C5;" d="M227.551,127.805c2.11-2.421,3.6-6.104,4.138-8.007h1.635c0.352,1.447,1.138,3.145,1.759,4.386
				c0.372,0.766,1.262,2.297,2.11,3.621h-1.862c-0.518-0.766-1.241-2.11-1.738-3.165c-0.289-0.621-0.807-1.677-1.117-2.629
				c-0.662,2.07-1.759,4.118-2.959,5.794H227.551z M229.971,129.771h1.407v3.683h9.767v1.283h-11.174V129.771z M239.448,118.7h1.47
				v3.787h2.399v1.262h-2.399v5.483h-1.47V118.7z"/>
		</g>
	</g>
	<g>
		<g>
			<path style="fill:#F1655D;" d="M36.683,119.652h1.469v2.813h4.635v-2.813h1.469v7.635h-7.573V119.652z M42.787,126.129v-2.545
				h-4.635v2.545H42.787z M40.138,129.418h1.531v3.808h9.146v1.304H40.138V129.418z M45.766,124.577h3.125v-2.173h-3.125v-1.221
				h3.125v-2.462h1.614v10.428h-1.614v-3.373h-3.125V124.577z"/>
			<path style="fill:#F1655D;" d="M53.134,120.314h3.58v-1.531h1.573v1.531h3.58v0.952H59.92c0.476,0.228,1.117,0.972,1.117,2.214
				v1.8c0,1.676-1.324,2.462-2.503,2.462h-2.069c-1.18,0-2.504-0.786-2.504-2.462v-1.8c0-1.242,0.642-1.986,1.117-2.214h-1.945
				V120.314z M55.223,124.949c0,1.158,0.517,1.718,1.862,1.718h0.848c1.324,0,1.842-0.56,1.842-1.718v-0.973
				c0-1.407-0.662-2.007-1.842-2.007h-0.869c-1.179,0-1.841,0.6-1.841,2.007V124.949z M56.693,131.86
				c0-1.159,0.91-1.986,2.317-1.986h6.725c1.138,0,2.069,0.744,2.069,1.861v1.594c0,0.849-0.745,1.614-1.676,1.614h-7.739
				c-0.993,0-1.696-0.725-1.696-1.78V131.86z M58.12,132.729c0,0.911,0.455,1.2,1.324,1.2h5.834c0.807,0,1.221-0.289,1.221-1.097
				v-0.827c0-0.621-0.394-1.014-1.242-1.014h-5.814c-1.18,0-1.324,0.744-1.324,1.262V132.729z M63.438,124.143h2.586v-2.069h-2.586
				v-1.283h2.586v-2.007h1.614v9.394h-1.614v-2.731h-2.586V124.143z"/>
		</g>
	</g>
	<g>
		<g>
			<g>
				<path style="fill:#D68D5D;" d="M93.421,7.787c0,2.69-2.214,5.711-4.014,7.614c-0.828,0.89-1.924,1.759-2.938,2.587v-1.986
					c2.876-2.359,5.09-5.421,5.297-7.966h-6.269V6.587h7.924V7.787z M96.297,21.278V5.242h1.511v16.036H96.297z"/>
				<path style="fill:#D68D5D;" d="M100.85,12.257h14.939v1.097H100.85V12.257z M102.216,17.946c0-1.386,1.242-1.82,2.11-1.82h7.366
					c1.324,0,2.11,0.786,2.11,1.82v1.47c0,1.241-0.91,1.883-1.883,1.883h-7.821c-1.241,0-1.883-0.808-1.883-1.635V17.946z
					 M102.526,5.057h1.324v3.579h10.139v1.304h-11.463V5.057z M103.685,19.126c0,1.159,0.621,1.159,1.531,1.159h5.959
					c0.849,0,1.304-0.538,1.304-1.263v-0.518c0-0.786-0.497-1.221-1.407-1.221h-5.856c-1.448,0-1.531,0.58-1.531,1.18V19.126z"/>
				<path style="fill:#D68D5D;" d="M130.71,7.87V6.918h3.642V5.139h1.655v1.779h3.642V7.87h-1.986
					c0.476,0.228,1.117,0.973,1.117,2.214v1.8c0,1.677-1.324,2.463-2.504,2.463h-2.235c-1.179,0-2.503-0.786-2.503-2.463v-1.8
					c0-1.241,0.642-1.986,1.117-2.214H130.71z M132.655,15.898h11.215v5.38h-11.215V15.898z M132.862,11.553
					c0,1.159,0.517,1.718,1.862,1.718h0.91c1.324,0,1.842-0.559,1.842-1.718v-0.972c0-1.407-0.662-2.008-1.842-2.008h-0.931
					c-1.179,0-1.841,0.601-1.841,2.008V11.553z M142.752,20.14v-3.104h-8.959v3.104H142.752z M142.524,5.098h1.428v8.794h-1.428
					V5.098z"/>
				<path style="fill:#D68D5D;" d="M160.258,14.201h14.877v1.324h-6.703v5.731h-1.49v-5.731h-6.684V14.201z M162.018,5.139h11.276
					v6.166h-11.276V5.139z M171.763,10.104V6.318h-8.049v3.786H171.763z"/>
				<path style="fill:#D68D5D;" d="M177.764,6.629h7.015V8.47c0,2.483-1.759,6.394-6.435,10.388v-1.986
					c2.462-2.132,4.801-5.773,4.801-8.773h-5.381V6.629z M184.924,11.532h2.606V5.057h1.304v16.18h-1.304v-8.173h-2.606V11.532z
					 M190.965,5.057h1.304v16.18h-1.304V5.057z"/>
			</g>
		</g>
		<circle style="fill:none;stroke:#D68D5D;stroke-miterlimit:10;" cx="152.492" cy="13.439" r="2.03"/>
		<circle style="fill:none;stroke:#D68D5D;stroke-miterlimit:10;" cx="122.495" cy="13.439" r="2.03"/>
	</g>
	<g>
		<path style="fill:none;stroke:#2483C5;stroke-miterlimit:10;" d="M222.64,105.931c0-2.104,1.706-3.809,3.809-3.809
			c2.104,0,3.809,1.705,3.809,3.809"/>
		<circle style="fill:none;stroke:#2483C5;stroke-miterlimit:10;" cx="222.228" cy="97.712" r="3.809"/>
		<circle style="fill:none;stroke:#2483C5;stroke-miterlimit:10;" cx="220.321" cy="43.129" r="3.809"/>
		<circle style="fill:none;stroke:#2483C5;stroke-miterlimit:10;" cx="231.334" cy="81.049" r="3.809"/>
		<line style="fill:none;stroke:#231F20;stroke-miterlimit:10;" x1="210.788" y1="106.119" x2="242.111" y2="106.119"/>
		<line style="fill:none;stroke:#231F20;stroke-miterlimit:10;" x1="211.7" y1="95.109" x2="242.111" y2="102.614"/>
		<line style="fill:none;stroke:#231F20;stroke-miterlimit:10;" x1="210.466" y1="66.508" x2="230.336" y2="90.722"/>
		<line style="fill:none;stroke:#231F20;stroke-miterlimit:10;" x1="234.35" y1="36.563" x2="227.838" y2="67.201"/>
	</g>
	<g>
		<circle style="fill:none;stroke:#F1655D;stroke-miterlimit:10;" cx="52.224" cy="65.98" r="3.809"/>
		<ellipse style="fill:none;stroke:#F1655D;stroke-miterlimit:10;" cx="52.224" cy="90.782" rx="3.809" ry="2.4"/>
		<ellipse style="fill:none;stroke:#F1655D;stroke-miterlimit:10;" cx="52.224" cy="103.505" rx="3.809" ry="0.926"/>
		<line style="fill:none;stroke:#231F20;stroke-miterlimit:10;" x1="36.707" y1="106.119" x2="68.03" y2="106.119"/>
		<line style="fill:none;stroke:#231F20;stroke-miterlimit:10;" x1="51.934" y1="98.113" x2="67.35" y2="95.352"/>
		<line style="fill:none;stroke:#231F20;stroke-miterlimit:10;" x1="36.707" y1="96.156" x2="52.067" y2="99.216"/>
		<line style="fill:none;stroke:#231F20;stroke-miterlimit:10;" x1="52.425" y1="73.858" x2="66.643" y2="67.29"/>
		<line style="fill:none;stroke:#231F20;stroke-miterlimit:10;" x1="53.128" y1="50.618" x2="46.217" y2="36.563"/>
		<line style="fill:none;stroke:#231F20;stroke-miterlimit:10;" x1="53.835" y1="55.04" x2="62.144" y2="41.765"/>
		<line style="fill:none;stroke:#231F20;stroke-miterlimit:10;" x1="40.759" y1="65.318" x2="52.369" y2="75.83"/>
	</g>
</g>
</svg>
