<?xml version="1.0" encoding="utf-8"?>
<!-- Generator: Adobe Illustrator 25.0.1, SVG Export Plug-In . SVG Version: 6.00 Build 0)  -->
<svg version="1.1" id="Layer_1" xmlns="http://www.w3.org/2000/svg" xmlns:xlink="http://www.w3.org/1999/xlink" x="0px" y="0px"
	 viewBox="0 0 500 500" style="enable-background:new 0 0 500 500;" xml:space="preserve">
<style type="text/css">
	.st0{fill:#8C8C8C;}
	.st1{fill:none;stroke:#FFFFFF;stroke-width:15;stroke-miterlimit:10;}
	.st2{fill:#FFFFFF;}
</style>
<path class="st0" d="M276.3,121c9.9,0,19.2,3.3,26.9,9.5c7.5,6,12.7,14.5,14.9,23.7l0.2,0.8h0.8h52.2c15.9,0,28.8,12.9,28.8,28.8
	v166.4c0,15.9-12.9,28.8-28.8,28.8H128.7c-15.9,0-28.8-12.9-28.8-28.8V183.8c0-15.9,12.9-28.8,28.8-28.8h52.2h0.8l0.2-0.8
	c2.1-9.3,7.4-17.7,14.9-23.7c7.6-6.1,17.1-9.5,26.9-9.5L276.3,121"/>
<path class="st1" d="M250.2,204.7c-37.2,0-67.3,30.2-67.3,67.3c0,37.2,30.1,67.3,67.3,67.3c37.2,0,67.3-30.1,67.3-67.3
	C317.6,234.8,287.4,204.7,250.2,204.7L250.2,204.7z"/>
<path class="st2" d="M364.8,206.1H344c-8.1,0-14.7-6.6-14.7-14.7v0c0-8.1,6.6-14.7,14.7-14.7h20.9c8.1,0,14.7,6.6,14.7,14.7v0
	C379.5,199.5,373,206.1,364.8,206.1z"/>
</svg>
