<?xml version="1.0" encoding="iso-8859-1"?>
<!-- Generator: Adobe Illustrator 25.0.1, SVG Export Plug-In . SVG Version: 6.00 Build 0)  -->
<svg version="1.1" id="Layer_1" xmlns="http://www.w3.org/2000/svg" xmlns:xlink="http://www.w3.org/1999/xlink" x="0px" y="0px"
	 viewBox="0 0 500 500" style="enable-background:new 0 0 500 500;" xml:space="preserve">
<rect style="fill:#0071FF;" width="500" height="500"/>
<g id="XMLID_15_">
	<g id="LORxpm.tif_4_">
		<g id="XMLID_144_">
			<path id="XMLID_304_" style="fill:#FFFFFF;" d="M219.384,384.016c-1.89-0.731-3.525-1.434-5.204-2.002
				c-2.726-0.92-5.464-1.831-8.242-2.555c-0.555-0.144-1.335,0.576-1.519,0.664c-1.643-1.144-3.097-2.158-4.688-3.262
				c-0.32,0.932-0.552,0.66-0.827,1.467c-3.802-3.102-4.477-4.094-6.092-2.798c-1.934-1.523-3.781-3.062-5.736-4.445
				c-0.479-0.341-1.375-0.36-1.994-0.2c-2.798,0.732-2.786,0.772-3.542-2.29c-0.859,0.28-1.702,0.556-2.793,0.912
				c0.06-2.458-1.391-3.046-3.374-3.366c-0.799-0.128-1.507-1.156-2.138-1.883c-1.283-1.47-2.31-3.009-4.597-3.389
				c-1.243-0.208-2.382-1.623-3.353-2.69c-1.415-1.555-2.538-3.382-3.989-4.896c-0.623-0.652-1.766-0.804-2.874-1.268
				c-0.163-1.959-1.155-3.31-3.589-3.162c-0.34,0.021-1.007-0.48-1.023-0.767c-0.096-1.962-1.604-2.658-2.863-3.733
				c-0.939-0.804-1.815-2.23-1.854-3.406c-0.072-2.214-0.928-2.866-3.058-2.342c-0.104-1.551,0.715-3.47-1.747-3.746
				c-0.231-0.027-0.364-0.663-0.595-0.975c-1.162-1.559-0.767-4.037-3.301-4.912c-0.8-0.276-1.092-2.159-1.519-3.346
				c-0.96-2.662-3.03-4.657-4.281-7.035c-0.855-1.627-3.229-3.074-2.038-5.736c0.304-0.679-0.784-1.947-1.167-2.965
				c-1.223-3.254-2.326-6.556-3.656-9.765c-0.696-1.679-2.019-3.118-2.587-4.824c-0.492-1.479-0.184-3.206-0.464-4.785
				c-0.787-4.416-1.834-8.789-2.518-13.222c-0.508-3.297-0.588-6.662-0.9-9.992c-0.504-5.384-1.139-10.76-1.503-16.156
				c-0.128-1.939,0.104-4.001,0.659-5.86c0.86-2.866,1.472-5.668,1.303-8.697c-0.084-1.515,0.464-3.097,0.912-4.597
				c1.206-4.065,2.334-8.17,3.82-12.135c3.494-9.317,6.803-18.75,12.015-27.287c2.846-4.664,6.247-8.99,9.289-13.542
				c0.875-1.311,0.992-3.457,2.122-4.193c1.835-1.196,1.539-3.71,4.27-4.632c2.925-0.988,5.056-4.221,7.65-6.331
				c5.7-4.64,11.292-9.446,17.275-13.698c4.704-3.346,9.853-6.104,14.952-8.846c2.547-1.367,5.457-2.043,8.138-3.169
				c2.658-1.12,5.236-2.422,7.858-3.629c2.826-1.303,5.464-2.83,8.938-2.226c1.922,0.336,4.077-0.836,6.151-1.176
				c4.029-0.659,8.095-1.099,12.103-1.85c1.982-0.372,3.873-1.227,6.119-1.966c1.775,1.958,6.723,1.982,8.274-0.168
				c1.435,0.503,2.702,1.207,4.038,1.375c8.334,1.055,16.711,1.787,25.006,3.065c3.601,0.556,7.139,1.927,10.528,3.345
				c7.03,2.938,14.106,5.844,20.852,9.361c4.933,2.57,9.645,5.76,13.962,9.281c5.988,4.88,11.907,9.968,17.122,15.644
				c4.953,5.384,9.178,11.488,13.335,17.543c6.334,9.217,10.292,19.637,14.073,30.069c2.047,5.648,3.137,11.556,4.173,17.523
				c1.415,8.138,1.73,16.26,1.602,24.407c-0.103,6.567-0.535,13.217-1.766,19.649c-1.559,8.142-3.482,16.323-6.364,24.07
				c-2.63,7.075-6.526,13.714-10.276,20.318c-2.97,5.231-6.531,10.124-9.877,15.14c-2.838,4.261-6.543,7.71-10.364,11.068
				c-2.714,2.386-5.121,5.14-7.906,7.43c-3.414,2.802-6.983,5.44-10.669,7.875c-4.424,2.926-8.933,5.76-13.597,8.269
				c-6.383,3.438-12.939,6.46-20.209,7.779c-6.516,1.183-12.918,2.978-19.406,4.341c-2.475,0.524-5.041,0.643-7.567,0.88
				c-4.513,0.419-9.025,0.883-13.55,1.127c-1.931,0.104-3.889-0.444-5.836-0.452c-4.129-0.012-8.073-1.159-12.107-1.691
				c-2.23-0.295-4.477-0.184-6.595-1.171C219.996,383.301,219.424,383.985,219.384,384.016z M362.702,237.245
				c0-0.652,0.108-1.283-0.016-1.863c-0.919-4.185-1.778-8.389-2.862-12.534c-2.638-10.113-6.595-19.714-12.347-28.444
				c-3.513-5.332-7.678-10.232-11.488-15.368c-5.12-6.907-11.904-12.011-18.678-17.063c-3.973-2.962-8.222-5.665-12.651-7.871
				c-5.991-2.986-12.227-5.52-18.462-7.978c-2.809-1.108-5.859-1.627-8.821-2.311c-5.073-1.171-10.117-2.59-15.257-3.281
				c-4.101-0.551-8.322-0.192-12.49-0.216c-3.85-0.02-7.747-0.412-11.532,0.083c-5.424,0.712-10.804,1.915-16.128,3.214
				c-5.152,1.259-10.324,2.594-15.285,4.441c-9.893,3.69-18.838,9.209-27.208,15.565c-10.972,8.337-20.117,18.434-27.627,30.005
				c-5.82,8.965-10.209,18.558-13.778,28.647c-4.049,11.447-5.663,23.274-6.57,35.222c-0.896,11.831,1.011,23.486,4.292,34.81
				c2.811,9.696,7.266,18.765,12.423,27.467c0.751,1.267,1.683,1.914,3.258,1.879c5.712-0.124,11.428-0.2,17.143-0.16
				c12.383,0.091,24.766,0.183,37.14,0.479c2.374,0.056,2.263-0.795,1.951-2.486c-0.272-1.467-0.427-2.99-0.363-4.473
				c0.18-4.121,0.723-8.234,0.723-12.35c-0.008-7.859-0.111-15.729-0.54-23.571c-0.212-3.894,0.448-7.931-1.295-11.695
				c-0.26-0.564-0.021-1.407,0.108-2.095c0.248-1.339,0.784-2.654,0.835-3.993c0.108-3.014,0.056-6.044-0.059-9.062
				c-0.06-1.559-0.54-3.105-0.565-4.664c-0.023-1.843-1.465-3.802,0.605-5.527c2.294-1.915,5.1-2.259,7.33-0.216
				c1.878,1.718,3.382,3.849,5.108,5.743c2.443,2.682,4.969,5.28,7.402,7.97c8.83,9.76,17.611,19.561,26.457,29.307
				c4.904,5.4,9.881,10.736,14.857,16.075c1.991,2.139,4.065,4.201,6.491,6.699c0.208-1.179,0.352-1.619,0.352-2.059
				c0.008-6.087,0.016-12.179-0.02-18.266c-0.04-6.727-0.103-13.45-0.2-20.177c-0.116-7.758-0.656-15.532-0.276-23.262
				c0.22-4.437,1.511-4.961,5.52-3.83c2.09,0.592,4.378,0.736,6.567,0.684c5.472-0.12,10.94-0.496,16.411-0.715
				c16.045-0.644,32.089-1.235,48.128-1.906C354.975,237.944,358.653,237.557,362.702,237.245z M152.857,325.855
				c0.687,1.18,0.892,1.591,1.147,1.967c4.957,7.179,10.928,13.442,17.683,18.906c4.92,3.981,9.865,8.058,15.308,11.22
				c5.904,3.429,12.279,6.163,18.671,8.609c5.335,2.043,10.928,3.618,16.536,4.716c8.333,1.635,16.819,2.314,25.324,1.807
				c5.996-0.356,12.023-0.724,17.947-1.651c9.884-1.547,19.413-4.565,28.639-8.41c4.065-1.695,7.978-3.817,11.783-6.047
				c4.369-2.558,8.901-5.032,12.719-8.294c6.375-5.449,12.415-11.332,18.279-17.339c6.367-6.523,10.928-14.437,14.913-22.519
				c3.266-6.627,5.72-13.714,7.958-20.777c4.472-14.121,5.452-28.671,4.228-43.383c-0.067-0.8-0.762-1.927-1.447-2.207
				c-1.239-0.504-2.69-0.64-4.053-0.656c-3.086-0.027-6.176,0.068-9.265,0.188c-11.583,0.451-23.171,0.939-34.755,1.395
				c-9.437,0.371-18.877,0.723-28.315,1.067c-1.043,0.036-2.126-0.192-2.09,1.462c0.1,4.684,0.012,9.373,0.216,14.053
				c0.448,10.233,1.099,20.453,1.539,30.685c0.3,6.991,0.48,13.99,0.471,20.985c0,1.41-0.399,3.338-0.935,4.768
				c-3.281,8.742-14.417,7.107-17.199,3.677c-2.958-3.645-6.06-7.171-9.129-10.719c-0.332-0.384-9.828-10.337-11.611-13.031
				c-0.144-0.215-0.58-0.396-0.836-0.347c-1.63,0.292-1.914-0.759-2.386-1.983c-1.115-2.894-3.381-5.009-5.924-6.495
				c-1.434-0.839-2.514-1.219-2.45-3.142c0.068-2.03-2.319-4.552-3.802-4.001c-1.767,0.652-5.763-6.662-7.782-8.833
				c-0.413-0.443-0.82-0.987-1.347-1.199c-0.871-0.352-3.533-3.01-3.897-3.861c-0.879-2.079-1.862-4.113-2.849-6.14
				c-0.096-0.195-0.524-0.232-1.244-0.523c0,1.104-0.036,1.922,0.004,2.734c0.192,3.805,0.42,7.607,0.608,11.407
				c0.311,6.271,0.659,12.54,0.887,18.814c0.359,10.033,1.683,20.045,0.244,30.11c-0.52,3.633-1.935,5.241-5.204,3.778
				c-3.641-1.631-7.334-0.968-10.94-1.228c-5.464-0.399-11,0.228-16.508,0.304c-1.67,0.023-3.345-0.5-5.016-0.472
				c-2.031,0.036-4.05,0.547-6.08,0.575C166.443,325.907,159.984,325.855,152.857,325.855z"/>
			<path id="XMLID_182_" style="fill:#FFFFFF;" d="M206.114,384.5c0.604-0.28,1.639-0.843,2.737-1.251
				c1.823-0.675,3.098,0.16,4.713,1.175c3.318,2.091,3.545,3.909,3.345,8.01c-0.372,1.144-0.252,2.694-0.111,3.885
				c5.315,0,10.32-0.056,15.324,0.016c5.028,0.072,10.053,0.367,15.081,0.376c4.961,0.008,9.936-0.064,14.882-0.436
				c1.766-0.131,3.109,0.5,5.035-0.24c2.303,0.599,3.49,0.22,5.716-0.488c0.703-0.223,1.542,0.008,2.309-0.06
				c2.367-0.212,4.769-0.268,7.076-0.772c1.847-0.403,3.206,0.26,3.241,2.147c0.08,3.805-0.387,4.481-3.929,5.636
				c-0.28,0.092-0.615,0.016-0.924,0c-3.457-0.208-6.906-0.52-10.367-0.608c-4.253-0.108-8.513-0.076-12.767-0.028
				c-5.208,0.056-10.416,0.096-15.616,0.324c-3.249,0.143-6.483,0.632-9.729,0.923c-0.335,0.028-0.703-0.22-1.043-0.372
				c-1.795-0.799-3.557-1.347-5,0.523c-3.278-1.427-3.278-1.427-3.885,0.34c-0.868-0.264-1.883-0.927-2.483-0.66
				c-0.764,0.336-1.675,1.432-1.675,2.202c-0.013,3.301,0.255,6.607,0.483,9.909c0.164,2.382,0.424,4.756,0.668,7.399
				c3.31,0,6.903,0.032,10.496-0.008c6.739-0.076,13.478-0.248,20.221-0.276c8.553-0.036,17.111,0.012,25.665,0.068
				c2.766,0.019,5.544,0.044,8.294,0.3c4.273,0.395,7.471,6.043,5.424,9.568c-0.431,0.744-1.519,1.551-2.317,1.571
				c-6.12,0.147-12.247,0.124-18.371,0.128c-10.237,0.004-20.469-0.028-30.705-0.02c-6.115,0.004-12.235-0.012-18.346,0.116
				c-3.17,0.068-6.336,0.367-9.493,0.683c-3.106,0.312-4.349-1.214-3.205-4.077c0.168-0.415,0.271-0.891,0.255-1.335
				c-0.264-6.243-0.68-12.479-0.807-18.722C206.114,401.951,206.162,393.469,206.114,384.5z"/>
			<path id="XMLID_166_" style="fill:#FFFFFF;" d="M260.15,353.659c-7.926,0-15.857-0.02-23.782,0.004
				c-7.642,0.024-15.285,0.092-22.931,0.164c-0.784,0.008-1.579,0.14-2.347,0.311c-2.482,0.556-4.505-0.115-5.283-2.61
				c-0.396-1.263,0.579-3.034,1.151-4.493c0.332-0.848,0.555-1.634,0.912-2.406c1.202-2.602,2.905-2.423,4.939-2.423
				c6.392-0.008,12.779-0.235,19.171-0.259c5.691-0.02,11.383,0.168,17.075,0.176c6.563,0.008,13.126-0.088,19.689-0.124
				c4.249-0.024,8.51-0.216,12.743,0.06c1.41,0.092,3.114,1.107,4.017,2.234c1.279,1.599,2.091,3.645,2.782,5.608
				c0.208,0.591-0.492,2.121-1.023,2.258c-2.878,0.731-5.824,1.506-8.769,1.623c-6.108,0.24-12.231,0.072-18.347,0.072
				C260.15,353.799,260.15,353.731,260.15,353.659z"/>
		</g>
	</g>
	<g id="XMLID_17_">
		<path id="XMLID_60_" style="fill:#FFFFFF;" d="M70.058,196.143c-0.04-0.452,0.128-0.915,0.404-1.434
			c3.37-8.71,10.133-12.443,21.033-8.503c10.344,3.742,15.201,10.604,12.063,18.91c-0.22,0.644-0.443,1.139-0.703,1.483
			c-0.424,0.528-0.971,0.719-2.015,0.403c-3.526-1.035-9.077-2.969-14.242-4.668c-5.28-1.755-10.492-3.325-15.692-5.173
			C70.314,196.907,70.111,196.539,70.058,196.143z M100.996,204.226c3.285-5.708-2.242-12.574-10.576-15.48
			c-8.046-2.802-15.464-0.728-17.128,6.363c4.664,1.619,9.429,3.086,14.07,4.612C91.779,201.212,96.559,202.778,100.996,204.226z"/>
		<path id="XMLID_57_" style="fill:#FFFFFF;" d="M103.334,168.688l-13.494-8.249c-0.388-0.24-2.067-1.223-2.454-1.463
			c-0.495-0.308-0.99-1.147-0.411-1.915c2.062-3.142,5.928-9.913,6.918-11.004c0.232-0.287,0.94-0.219,1.283-0.008
			c1.044,0.643,0.727,1.411,0.324,2.063c-0.739,1.199-4.516,7.223-5.264,8.418l-0.451,0.719L101.115,164c0,0,4.013-6.3,5.161-8.426
			c0,0,0.284-0.62,0.527-0.94c0.336-0.444,1.067-0.252,1.336-0.083c0.803,0.503,0.906,1.203,0.547,1.882
			c-0.547,1.052-5.436,8.942-5.436,8.942l6.955,4.252l3.97,2.466c0.886,0.54,0.991,0.288,1.351-0.284
			c1.287-2.087,3.181-5.069,3.857-6.248l1.97-3.362c0.348-0.639,1.219-0.419,1.567-0.2c0.672,0.472,0.888,0.972,0.387,1.783
			c-2.267,3.921-4.137,6.763-6.519,10.616c-0.644,1.044-1.623,1.599-2.666,0.955L103.334,168.688z"/>
		<path id="XMLID_54_" style="fill:#FFFFFF;" d="M123.327,121.183c-0.308,0.652-1.107,1.083-1.915,0.54
			c-1.874-1.267-3.889-1.087-5.548,0.535c-2.666,2.595-2.474,5.444-0.823,7.059c1.75,1.719,5.18,1.966,10.471,1.818
			c8.046-0.243,11.324,0.424,14.302,3.478c3.761,3.865,2.686,8.202-0.612,11.576c-3.305,3.37-8.457,3.581-11.407,0.631
			c-0.684-0.603-0.591-1.403-0.116-1.951c0.44-0.515,1.275-0.787,1.983-0.212c2.265,2.031,5.348,1.998,7.658-0.308
			c2.602-2.594,2.802-5.383,0.407-7.73c-2.822-2.762-5.931-2.762-12.058-2.662c-6.12,0.096-10.061-0.092-12.531-2.498
			c-2.526-2.466-3.497-6.595,0.656-10.84c2.602-2.662,5.675-3.458,9.061-1.283C123.599,119.796,123.651,120.608,123.327,121.183z"/>
		<path id="XMLID_47_" style="fill:#FFFFFF;" d="M157.094,129.737c-0.876,0.476-1.547,0.22-1.843-0.295
			c-0.255-0.476-0.128-1.171,0.607-1.715c0.98-0.652,1.551-1.095,2.539-1.747c-5.248-7.838-10.708-16.46-16.528-24.502l-2.59,1.739
			c-0.851,0.455-1.531,0.155-1.866-0.336c-0.348-0.524-0.272-1.287,0.503-1.855c2.742-1.85,5.48-3.621,8.194-5.444
			c0.727-0.212,1.339-0.028,1.663,0.359c0.359,0.471,0.347,1.187-0.296,1.847c-1.055,0.695-2.074,1.38-3.157,2.051
			c1.135,1.527,2.338,3.401,3.041,4.453l13.443,20.074c1.139-0.824,1.886-1.271,3.054-2.043c0.903-0.284,1.578,0.084,1.77,0.603
			c0.116,0.42,0.012,0.92-0.516,1.44L157.094,129.737z"/>
		<path id="XMLID_44_" style="fill:#FFFFFF;" d="M183.954,97.44c-0.695,0.44-1.442-0.032-1.738-0.751
			c-0.244-0.579-0.156-1.303,0.62-1.683c1.45-0.759,3.749-1.487,5.455-2.351c0.972-0.507,1.919-0.707,2.675,0.843
			c1.402,2.854,3.424,8.006,5.127,12.164c0.244,0.588,0.348,1.179,0.04,1.951c-0.787,1.75-3.645,3.853-5.435,4.604
			c-6.943,2.93-13.914-2.051-18-11.364c-4.001-9.141-3.561-18.138,3.729-21.516c2.431-1.116,5.564-1.503,6.899-0.687
			c0.54,0.36,0.76,0.863,0.721,1.371c-0.064,0.672-0.652,1.256-1.411,1.087c-0.988-0.224-3.346-0.116-4.793,0.535
			c-6.16,2.802-5.509,11.24-2.395,18.251c3.906,8.793,9.545,11.775,14.23,9.797c1.339-0.56,3.477-2.011,3.845-3.242
			c-1.435-3.537-2.761-6.667-4.225-10.133c-0.315-0.756-0.419-1.107-1.399-0.644L183.954,97.44z"/>
		<path id="XMLID_35_" style="fill:#FFFFFF;" d="M207.169,69.385c0.54-0.307,1.236-0.284,1.687,0.265
			c4.065,4.852,7.814,9.353,11.648,13.83c2.91,3.393,5.464,6.907,8.477,10.415c-2.677-11.946-4.928-22.359-6.027-26.66
			c-0.116-0.904,0.287-1.603,0.991-1.758c0.716-0.16,1.747,0.307,1.835,1.127c0.124,0.756,0.971,4.749,1.219,5.855
			c1.822,8.091,3.174,13.923,5.656,24.974c0.251,1.104,0.611,2.51-0.852,2.842c-0.703,0.156-1.199-0.192-1.698-1.159
			c-3.042-3.446-6.532-7.999-10.501-12.639c-3.145-3.665-5.991-6.835-8.709-10.26c0.935,3.129,2.023,7.163,2.778,10.103
			c1.747,6.764,2.506,9.933,3.853,15.713c0.212,0.935-0.431,1.591-1.139,1.747c-0.664,0.148-1.431-0.14-1.623-1.031
			c-1.135-5.688-2.265-9.656-3.725-15.325c-1.299-5.004-2.962-11.364-4.456-16.555C206.374,70.165,206.721,69.625,207.169,69.385z"
			/>
		<path id="XMLID_31_" style="fill:#FFFFFF;" d="M281.21,66.828c0.223-0.868,0.388-2.087,1.663-1.779
			c1.758,0.451,4.108,1.167,6.679,2.391c3.665,1.718,5.96,5.204,5.26,9.956c-0.603,4.045-3.677,7.539-10.356,8.051
			c1.831,5.096,3.613,9.437,5.783,15.304c0.244,0.652,0.084,1.171-0.22,1.527c-0.535,0.588-1.582,0.508-2.063-0.568
			c-2.214-5.164-4.412-10.708-6.371-16.252c-0.42,0.008-0.831-0.024-1.231-0.064c-1.203,6.043-2.294,11.323-2.846,13.386
			c-0.219,0.831-0.89,1.159-1.518,1.075c-0.72-0.105-1.379-0.704-1.171-1.719C276.894,88.016,278.956,78.443,281.21,66.828z
			 M280.878,82.824c7.698,0.604,10.341-2.13,11.104-5.867c0.56-2.699-0.536-5.928-4.613-7.698c-0.984-0.388-2.23-0.876-3.529-1.283
			C282.949,72.323,281.89,77.66,280.878,82.824z"/>
		<path id="XMLID_30_" style="fill:#FFFFFF;" d="M312.934,94.475l6.52-14.413c0.188-0.419,0.967-2.21,1.155-2.614
			c0.243-0.544,1.019-1.139,1.843-0.655c3.389,1.647,10.588,4.665,11.795,5.52c0.316,0.192,0.336,0.895,0.16,1.271
			c-0.503,1.115-1.303,0.895-2.01,0.571c-1.275-0.587-7.73-3.601-9.005-4.18l-0.787-0.36l-5.296,12.083c0,0,6.763,3.202,9.005,4.085
			c0,0,0.655,0.208,1.003,0.412c0.475,0.272,0.387,1.023,0.244,1.315c-0.392,0.864-1.083,1.052-1.798,0.767
			c-1.107-0.411-9.558-4.285-9.558-4.285l-3.369,7.435l-1.946,4.244c-0.44,0.948-0.168,1.023,0.452,1.308
			c2.23,1.018,5.424,2.537,6.674,3.06l3.581,1.547c0.684,0.264,0.568,1.159,0.4,1.527c-0.38,0.727-0.863,1.011-1.726,0.612
			c-4.181-1.767-7.227-3.278-11.352-5.16c-1.119-0.516-1.799-1.423-1.287-2.538L312.934,94.475z"/>
		<path id="XMLID_28_" style="fill:#FFFFFF;" d="M367.01,107.21c-0.667,0.295-1.466,0.156-1.622-0.64
			c-0.22-1.295-1.379-2.842-2.538-3.709c-5.417-4.037-11.504,1.318-15.976,7.538c-5.604,7.806-6.276,13.474-2.578,16.241
			c1.603,1.198,3.042,1.919,5.069,1.631c1.023-0.092,1.539,0.58,1.539,1.267c-0.008,0.612-0.464,1.291-1.371,1.455
			c-2.087,0.368-4.285-0.252-6.86-2.178c-5.667-4.233-3.981-12.079,1.983-20.305c5.852-8.066,13.166-12.786,19.598-7.986
			c1.959,1.463,3.529,3.537,3.697,5.128C368.022,106.386,367.55,106.945,367.01,107.21z"/>
		<path id="XMLID_27_" style="fill:#FFFFFF;" d="M360.595,144.042c-0.607-0.799-0.443-1.502,0.021-1.862
			c0.431-0.336,1.139-0.304,1.783,0.344c0.787,0.867,1.315,1.379,2.098,2.242c6.955-6.339,14.673-13.007,21.76-19.942l-2.107-2.314
			c-0.575-0.759-0.379-1.486,0.056-1.886c0.463-0.431,1.236-0.46,1.914,0.22c2.222,2.442,4.385,4.876,6.583,7.286
			c0.315,0.695,0.223,1.331-0.108,1.699c-0.408,0.431-1.115,0.527-1.863-0.02c-0.851-0.94-1.675-1.847-2.494-2.81
			c-1.348,1.339-3.014,2.802-3.953,3.658l-17.835,16.252c0.983,1.003,1.527,1.675,2.466,2.706c0.411,0.851,0.155,1.582-0.336,1.85
			c-0.391,0.172-0.903,0.148-1.495-0.295L360.595,144.042z"/>
		<path id="XMLID_19_" style="fill:#FFFFFF;" d="M405.67,147.556c0,0,1.072-1.023,2.023,0.356c1.263,2.043,3.045,4.929,3.605,7.994
			c0.707,3.821-1.124,7.606-4.948,10.184c-6.507,4.381-13.642,1.707-17.663-4.653l-8.682,5.349c-0.683,0.687-1.674,0.455-2.19-0.193
			c-0.272-0.359-0.392-0.811-0.264-1.378c0.231-0.399,0.455-0.652,0.835-0.884C388.523,158.24,399.267,151.669,405.67,147.556z
			 M391.077,159.958c3.054,4.941,8.813,6.867,13.49,3.825c3.106-2.031,4.329-4.805,3.865-7.71c-0.244-1.503-1.635-4.2-2.307-5.384
			L391.077,159.958z"/>
		<path id="XMLID_18_" style="fill:#FFFFFF;" d="M406.741,188.425l14.849-5.444c0.431-0.16,2.25-0.864,2.674-1.012
			c0.555-0.2,1.519-0.071,1.751,0.855c1.199,3.57,4.096,10.817,4.329,12.272c0.076,0.356-0.412,0.867-0.792,1.011
			c-1.151,0.412-1.559-0.315-1.815-1.035c-0.474-1.315-2.854-8.034-3.329-9.344l-0.284-0.82l-12.343,4.688
			c0,0,2.462,7.067,3.402,9.281c0,0,0.308,0.607,0.411,1.003c0.14,0.528-0.463,0.988-0.767,1.095
			c-0.896,0.315-1.499-0.032-1.811-0.747c-0.488-1.083-3.633-9.82-3.633-9.82l-7.666,2.805l-4.392,1.591
			c-0.98,0.348-0.843,0.592-0.62,1.231c0.836,2.307,1.991,5.643,2.498,6.907l1.403,3.641c0.287,0.672-0.433,1.211-0.812,1.347
			c-0.783,0.244-1.315,0.096-1.634-0.799c-1.667-4.217-2.742-7.454-4.277-11.711c-0.413-1.159-0.244-2.275,0.906-2.686
			L406.741,188.425z"/>
	</g>
</g>
</svg>
